<svg width="16" height="16" viewBox="0 0 16 16" fill="none" xmlns="http://www.w3.org/2000/svg">
<g clip-path="url(#clip0_0_30)">
<path d="M11.2433 6.44666L9.31333 6.16666L8.45 4.41666C8.36667 4.24666 8.19333 4.13666 8 4.13666C7.80667 4.13666 7.63667 4.24332 7.55 4.41666L6.68667 6.16666L4.75667 6.44666C4.57 6.47332 4.41333 6.60666 4.35333 6.78666C4.29333 6.96666 4.34333 7.16666 4.48 7.29999L5.87667 8.65999L5.54667 10.5833C5.5311 10.6753 5.54156 10.7699 5.57687 10.8563C5.61218 10.9427 5.67093 11.0175 5.7465 11.0722C5.82207 11.127 5.91144 11.1596 6.00454 11.1662C6.09763 11.1729 6.19073 11.1534 6.27333 11.11L8 10.2L9.72667 11.1067C9.8 11.1467 9.88 11.1633 9.96 11.1633C10.0633 11.1633 10.1667 11.13 10.2533 11.0667C10.4067 10.9533 10.4833 10.7667 10.4533 10.5767L10.1233 8.65332L11.52 7.29332C11.6567 7.15999 11.7067 6.96332 11.6467 6.77999C11.5867 6.60332 11.43 6.47332 11.2433 6.44666ZM9.23667 8.12666C9.12 8.23999 9.06333 8.40666 9.09333 8.56999L9.29667 9.75332L8.23333 9.19332C8.16 9.15666 8.08 9.13666 8 9.13666C7.92 9.13666 7.84 9.15666 7.76667 9.19332L6.70333 9.75332L6.90667 8.56999C6.93333 8.40666 6.88 8.24332 6.76333 8.12666L5.90333 7.28999L7.09 7.11666C7.25333 7.09332 7.39333 6.98999 7.46667 6.84332L8 5.76666L8.53 6.84332C8.60333 6.98999 8.74333 7.09332 8.90667 7.11666L10.0933 7.28999L9.23667 8.12666Z" fill="#252525"/>
<path d="M8 0.833344C4.05 0.833344 0.833332 4.05001 0.833332 8.00001C0.833332 11.9533 4.05 15.1667 8 15.1667C11.95 15.1667 15.1667 11.9533 15.1667 8.00001C15.1667 4.05001 11.95 0.833344 8 0.833344ZM8 14.1667C4.6 14.1667 1.83333 11.4 1.83333 8.00001C1.83333 4.60001 4.6 1.83334 8 1.83334C11.4 1.83334 14.1667 4.60001 14.1667 8.00001C14.1667 11.4 11.4 14.1667 8 14.1667Z" fill="#252525"/>
</g>
<defs>
<clipPath id="clip0_0_30">
<rect width="16" height="16" fill="white"/>
</clipPath>
</defs>
</svg>
