<svg width="24" height="24" viewBox="0 0 24 24" fill="none" xmlns="http://www.w3.org/2000/svg">
<path fill-rule="evenodd" clip-rule="evenodd" d="M11.4761 2.14834C11.7976 1.95055 12.2029 1.95055 12.5243 2.14834L22.2743 8.14834C22.6554 8.38282 22.8343 8.84186 22.7124 9.27234C22.5906 9.70283 22.1976 10 21.7502 10H19.7502V14.75H21.0002C21.5525 14.75 22.0002 15.1977 22.0002 15.75C22.0002 16.3023 21.5525 16.75 21.0002 16.75H18.7502H14.2502H9.75024H5.25024H3.00024C2.44796 16.75 2.00024 16.3023 2.00024 15.75C2.00024 15.1977 2.44796 14.75 3.00024 14.75H4.25024V10H2.25024C1.80285 10 1.40989 9.70283 1.28804 9.27234C1.1662 8.84186 1.34512 8.38282 1.72615 8.14834L11.4761 2.14834ZM17.7502 10V14.75H15.2502V10H17.7502ZM13.2502 10V14.75H10.7502V10H13.2502ZM8.75024 10V14.75H6.25024V10H8.75024ZM18.2172 8H14.2502H9.75024H5.78329L12.0002 4.17418L18.2172 8ZM1.50024 18.5C0.947959 18.5 0.500244 18.9477 0.500244 19.5C0.500244 20.0523 0.947959 20.5 1.50024 20.5H22.5002C23.0525 20.5 23.5002 20.0523 23.5002 19.5C23.5002 18.9477 23.0525 18.5 22.5002 18.5H1.50024Z" fill="url(#paint0_linear_0_43)"/>
<defs>
<linearGradient id="paint0_linear_0_43" x1="0.500244" y1="2" x2="23.5974" y2="20.3779" gradientUnits="userSpaceOnUse">
<stop stop-color="#AD37E0"/>
<stop offset="1" stop-color="#EE2B3B"/>
</linearGradient>
</defs>
</svg>
