<svg width="30" height="30" viewBox="0 0 30 30" fill="none" xmlns="http://www.w3.org/2000/svg">
<path fill-rule="evenodd" clip-rule="evenodd" d="M5.00004 16.2499H3.75004C3.50285 16.2499 3.26123 16.1766 3.05572 16.0392C2.8502 15.9018 2.69003 15.7066 2.59544 15.4783C2.50085 15.2499 2.4761 14.9986 2.52431 14.7562C2.57252 14.5137 2.69153 14.291 2.86629 14.1162L14.1163 2.8662C14.2323 2.75001 14.37 2.65784 14.5217 2.59495C14.6733 2.53206 14.8359 2.49969 15 2.49969C15.1642 2.49969 15.3268 2.53206 15.4784 2.59495C15.63 2.65784 15.7678 2.75001 15.8838 2.8662L27.1338 14.1162C27.3086 14.291 27.4276 14.5137 27.4758 14.7562C27.524 14.9986 27.4992 15.2499 27.4046 15.4783C27.31 15.7066 27.1499 15.9018 26.9444 16.0392C26.7388 16.1766 26.4972 16.2499 26.25 16.2499H25V24.9999C25 26.3787 23.8788 27.4999 22.5 27.4999H7.50004C6.12129 27.4999 5.00004 26.3787 5.00004 24.9999V16.2499ZM22.5 13.0174L15 5.51745L7.50004 13.0174V24.9999H22.5013L22.5 18.7499V13.0174ZM21.1876 17.8889C21.1263 18.0764 19.6288 22.5001 15.0001 22.5001C10.3713 22.5001 8.87381 18.0764 8.81256 17.8889L11.1863 17.1051C11.2251 17.2239 12.2026 20.0001 15.0001 20.0001C17.819 20.0001 18.7907 17.1762 18.8123 17.1134L18.8126 17.1126L21.1876 17.8889Z" fill="white"/>
</svg>
