<svg width="56" height="56" viewBox="0 0 56 56" fill="none" xmlns="http://www.w3.org/2000/svg">
<path d="M25.375 15.75V35C25.3719 37.7838 24.2646 40.4527 22.2961 42.4211C20.3277 44.3896 17.6588 45.4969 14.875 45.5C14.4109 45.5 13.9658 45.3156 13.6376 44.9874C13.3094 44.6592 13.125 44.2141 13.125 43.75C13.125 43.2859 13.3094 42.8407 13.6376 42.5126C13.9658 42.1844 14.4109 42 14.875 42C16.7309 41.9979 18.5101 41.2598 19.8224 39.9474C21.1347 38.6351 21.8729 36.8559 21.875 35V33.25H8.75C7.82207 33.2489 6.93245 32.8798 6.2763 32.2237C5.62015 31.5676 5.25106 30.6779 5.25 29.75V15.75C5.25106 14.8221 5.62015 13.9324 6.2763 13.2763C6.93245 12.6202 7.82207 12.2511 8.75 12.25H21.875C22.8029 12.2511 23.6926 12.6202 24.3487 13.2763C25.0048 13.9324 25.3739 14.8221 25.375 15.75ZM47.25 12.25H34.125C33.1971 12.2511 32.3074 12.6202 31.6513 13.2763C30.9952 13.9324 30.6261 14.8221 30.625 15.75V29.75C30.6261 30.6779 30.9952 31.5676 31.6513 32.2237C32.3074 32.8798 33.1971 33.2489 34.125 33.25H47.25V35C47.2479 36.8559 46.5098 38.6351 45.1974 39.9474C43.8851 41.2598 42.1059 41.9979 40.25 42C39.7859 42 39.3408 42.1844 39.0126 42.5126C38.6844 42.8407 38.5 43.2859 38.5 43.75C38.5 44.2141 38.6844 44.6592 39.0126 44.9874C39.3408 45.3156 39.7859 45.5 40.25 45.5C43.0338 45.4969 45.7027 44.3896 47.6711 42.4211C49.6396 40.4527 50.7469 37.7838 50.75 35V15.75C50.7489 14.8221 50.3798 13.9324 49.7237 13.2763C49.0676 12.6202 48.1779 12.2511 47.25 12.25Z" fill="url(#paint0_linear_0_38)"/>
<defs>
<linearGradient id="paint0_linear_0_38" x1="5.25" y1="29.75" x2="51.6183" y2="29.75" gradientUnits="userSpaceOnUse">
<stop stop-color="#AD37E0"/>
<stop offset="1" stop-color="#EE2B3B"/>
</linearGradient>
</defs>
</svg>
