<svg width="16" height="18" viewBox="0 0 16 18" fill="none" xmlns="http://www.w3.org/2000/svg">
<path d="M7.71429 18C11.9743 18 15.4286 14.5457 15.4286 10.2857C11.1686 10.2857 7.71429 13.74 7.71429 18ZM2.23286 7.92857C2.23286 9.11143 3.19286 10.0714 4.37571 10.0714C4.82571 10.0714 5.24571 9.93 5.58857 9.69429L5.57143 9.85714C5.57143 11.04 6.53143 12 7.71429 12C8.89714 12 9.85714 11.04 9.85714 9.85714L9.84 9.69429C10.1871 9.93429 10.6029 10.0714 11.0529 10.0714C12.2357 10.0714 13.1957 9.11143 13.1957 7.92857C13.1957 7.07571 12.6943 6.34286 11.97 6C12.69 5.65714 13.1957 4.92429 13.1957 4.07143C13.1957 2.88857 12.2357 1.92857 11.0529 1.92857C10.6029 1.92857 10.1829 2.07 9.84 2.30571L9.85714 2.14286C9.85714 0.96 8.89714 0 7.71429 0C6.53143 0 5.57143 0.96 5.57143 2.14286L5.58857 2.30571C5.24143 2.06571 4.82571 1.92857 4.37571 1.92857C3.19286 1.92857 2.23286 2.88857 2.23286 4.07143C2.23286 4.92429 2.73429 5.65714 3.45857 6C2.73429 6.34286 2.23286 7.07571 2.23286 7.92857ZM7.71429 3.85714C8.89714 3.85714 9.85714 4.81714 9.85714 6C9.85714 7.18286 8.89714 8.14286 7.71429 8.14286C6.53143 8.14286 5.57143 7.18286 5.57143 6C5.57143 4.81714 6.53143 3.85714 7.71429 3.85714ZM0 10.2857C0 14.5457 3.45429 18 7.71429 18C7.71429 13.74 4.26 10.2857 0 10.2857Z" fill="#FF8412"/>
</svg>
