<svg width="32" height="32" viewBox="0 0 32 32" fill="none" xmlns="http://www.w3.org/2000/svg">
<path d="M28 7C28.0015 6.44965 27.8517 5.90948 27.5668 5.4386C27.2819 4.96773 26.8729 4.58429 26.3847 4.33027C25.8965 4.07624 25.3478 3.96141 24.7987 3.99834C24.2496 4.03527 23.7212 4.22254 23.2714 4.53965C22.8216 4.85677 22.4677 5.29151 22.2484 5.79629C22.0291 6.30107 21.9529 6.85645 22.0282 7.40164C22.1034 7.94683 22.3271 8.46082 22.6749 8.88735C23.0227 9.31389 23.4811 9.63655 24 9.82V22C24 23.5913 23.3679 25.1174 22.2426 26.2426C21.1174 27.3679 19.5913 28 18 28C16.4087 28 14.8826 27.3679 13.7574 26.2426C12.6321 25.1174 12 23.5913 12 22V20.92C13.6646 20.6797 15.187 19.8482 16.2888 18.5775C17.3906 17.3068 17.998 15.6818 18 14V3C18 2.73478 17.8946 2.48043 17.7071 2.29289C17.5196 2.10536 17.2652 2 17 2H14C13.7348 2 13.4804 2.10536 13.2929 2.29289C13.1054 2.48043 13 2.73478 13 3C13 3.26522 13.1054 3.51957 13.2929 3.70711C13.4804 3.89464 13.7348 4 14 4H16V14C16 15.3261 15.4732 16.5979 14.5355 17.5355C13.5979 18.4732 12.3261 19 11 19C9.67392 19 8.40215 18.4732 7.46447 17.5355C6.52678 16.5979 6 15.3261 6 14V4H8C8.26522 4 8.51957 3.89464 8.70711 3.70711C8.89464 3.51957 9 3.26522 9 3C9 2.73478 8.89464 2.48043 8.70711 2.29289C8.51957 2.10536 8.26522 2 8 2H5C4.73478 2 4.48043 2.10536 4.29289 2.29289C4.10536 2.48043 4 2.73478 4 3V14C4.00197 15.6818 4.60941 17.3068 5.71118 18.5775C6.81295 19.8482 8.3354 20.6797 10 20.92V22C10 24.1217 10.8429 26.1566 12.3431 27.6569C13.8434 29.1571 15.8783 30 18 30C20.1217 30 22.1566 29.1571 23.6569 27.6569C25.1571 26.1566 26 24.1217 26 22V9.82C26.5835 9.61369 27.089 9.23193 27.4471 8.72707C27.8051 8.2222 27.9983 7.61894 28 7ZM25 8C24.8022 8 24.6089 7.94135 24.4444 7.83147C24.28 7.72159 24.1518 7.56541 24.0761 7.38268C24.0004 7.19996 23.9806 6.99889 24.0192 6.80491C24.0578 6.61093 24.153 6.43275 24.2929 6.29289C24.4327 6.15304 24.6109 6.0578 24.8049 6.01921C24.9989 5.98063 25.2 6.00043 25.3827 6.07612C25.5654 6.15181 25.7216 6.27998 25.8315 6.44443C25.9414 6.60888 26 6.80222 26 7C26 7.26522 25.8946 7.51957 25.7071 7.70711C25.5196 7.89464 25.2652 8 25 8Z" fill="white"/>
</svg>
