<svg width="30" height="30" viewBox="0 0 30 30" fill="none" xmlns="http://www.w3.org/2000/svg">
<path fill-rule="evenodd" clip-rule="evenodd" d="M4.75 10C4.75 9.17157 5.42157 8.5 6.25 8.5H16.25C17.0784 8.5 17.75 9.17157 17.75 10V12.5001V17.5001V20C17.75 20.8284 17.0784 21.5 16.25 21.5H6.25C5.42157 21.5 4.75 20.8284 4.75 20V10ZM19.75 19.118V20C19.75 21.933 18.183 23.5 16.25 23.5H6.25C4.317 23.5 2.75 21.933 2.75 20V10C2.75 8.067 4.317 6.5 6.25 6.5H16.25C18.183 6.5 19.75 8.067 19.75 10V10.8823L23.9941 8.76068L23.9942 8.76061C24.3372 8.58924 24.7182 8.50834 25.1012 8.52559C25.4842 8.54284 25.8565 8.65767 26.1826 8.85918C26.5088 9.06068 26.778 9.34218 26.9648 9.67698C27.1516 10.0118 27.2498 10.3887 27.25 10.7721V10.7726V19.2276V19.2282C27.2498 19.6116 27.1516 19.9885 26.9648 20.3233C26.778 20.6581 26.5088 20.9396 26.1826 21.1411C25.8565 21.3426 25.4842 21.4575 25.1012 21.4747C24.7182 21.492 24.3372 21.4111 23.9942 21.2397L23.9941 21.2396L19.75 19.118ZM19.75 16.8821L24.8882 19.4506C24.9264 19.4697 24.9687 19.4786 25.0112 19.4767C25.0538 19.4748 25.0952 19.4621 25.1314 19.4397C25.1676 19.4173 25.1976 19.386 25.2183 19.3488C25.2391 19.3116 25.25 19.2697 25.25 19.2271V10.7732C25.25 10.7306 25.2391 10.6887 25.2183 10.6515C25.1976 10.6143 25.1676 10.583 25.1314 10.5606C25.0952 10.5382 25.0538 10.5255 25.0112 10.5236C24.9687 10.5217 24.9265 10.5306 24.8884 10.5496L24.8882 10.5497L19.75 13.1182V16.8821Z" fill="white"/>
</svg>
