<svg width="26" height="24" viewBox="0 0 26 24" fill="none" xmlns="http://www.w3.org/2000/svg">
<path fill-rule="evenodd" clip-rule="evenodd" d="M25.2667 18L16.4667 2.26666C15.8001 0.933329 14.4667 0.266663 13.0001 0.266663C11.5334 0.266663 10.2001 0.933329 9.5334 2.26666L0.733398 18C0.0667318 19.2 0.0667318 20.8 0.733398 22C1.40007 23.2 2.7334 24 4.20007 24H21.8001C23.2667 24 24.4667 23.2 25.2667 22C26.0667 20.8 25.9334 19.3333 25.2667 18ZM22.9246 20.7571L22.9245 20.7571C22.7682 20.9564 22.4726 21.3333 21.8001 21.3333H4.20007C3.5334 21.3333 3.1334 20.9333 3.00007 20.6667C2.9902 20.6469 2.97961 20.6265 2.96861 20.6052C2.83093 20.3394 2.62966 19.9507 3.00007 19.3333L11.8001 3.46666C12.2001 2.8 12.7334 2.8 13.0001 2.8C13.2667 2.8 13.8001 2.8 14.2001 3.46666L23.0001 19.3333C23.208 19.8532 23.0916 20.292 23.0303 20.5232C23.0277 20.533 23.0253 20.5423 23.0229 20.5513C23.0038 20.6243 22.9711 20.6977 22.9246 20.7571ZM13 7.99998C12.2 7.99998 11.6667 8.53331 11.6667 9.33331V13.3333C11.6667 14.1333 12.2 14.6666 13 14.6666C13.8 14.6666 14.3333 14.1333 14.3333 13.3333V9.33331C14.3333 8.53331 13.8 7.99998 13 7.99998ZM14.3333 17.3333C14.3333 18.0697 13.7364 18.6666 13 18.6666C12.2636 18.6666 11.6667 18.0697 11.6667 17.3333C11.6667 16.5969 12.2636 16 13 16C13.7364 16 14.3333 16.5969 14.3333 17.3333Z" fill="url(#paint0_linear_0_34)"/>
<defs>
<linearGradient id="paint0_linear_0_34" x1="0.233398" y1="0.266663" x2="28.6608" y2="19.8793" gradientUnits="userSpaceOnUse">
<stop stop-color="#AD37E0"/>
<stop offset="1" stop-color="#EE2B3B"/>
</linearGradient>
</defs>
</svg>
