<svg width="26" height="20" viewBox="0 0 26 20" fill="none" xmlns="http://www.w3.org/2000/svg">
<path d="M24.25 8.01251H21.125C20.9596 8.01319 20.796 8.04669 20.6437 8.11106C20.4913 8.17543 20.3533 8.2694 20.2375 8.38751L18.6875 10L15.1875 6.01251C15.0706 5.88762 14.9293 5.78806 14.7723 5.72C14.6153 5.65193 14.4461 5.61681 14.275 5.61681C14.1039 5.61681 13.9347 5.65193 13.7777 5.72C13.6207 5.78806 13.4794 5.88762 13.3625 6.01251L11.2375 8.13751H9.25C8.91848 8.13751 8.60054 8.2692 8.36612 8.50362C8.1317 8.73804 8 9.05598 8 9.38751C8 9.71903 8.1317 10.037 8.36612 10.2714C8.60054 10.5058 8.91848 10.6375 9.25 10.6375H11.75C11.9145 10.6385 12.0776 10.6069 12.2299 10.5447C12.3822 10.4825 12.5207 10.3909 12.6375 10.275L14.25 8.60001L17.75 12.5875C17.8629 12.7162 18.0011 12.8203 18.1559 12.8934C18.3107 12.9666 18.4789 13.0071 18.65 13.0125C18.8145 13.0135 18.9776 12.9819 19.1299 12.9197C19.2822 12.8575 19.4207 12.7659 19.5375 12.65L21.6625 10.5125H24.25C24.5815 10.5125 24.8995 10.3808 25.1339 10.1464C25.3683 9.91197 25.5 9.59403 25.5 9.26251C25.5 8.93098 25.3683 8.61304 25.1339 8.37862C24.8995 8.1442 24.5815 8.01251 24.25 8.01251ZM15.0125 14.6375L12.6375 17.0125C12.5213 17.1297 12.383 17.2227 12.2307 17.2861C12.0784 17.3496 11.915 17.3823 11.75 17.3823C11.585 17.3823 11.4216 17.3496 11.2693 17.2861C11.117 17.2227 10.9787 17.1297 10.8625 17.0125L4.35 10.5C3.9214 10.0717 3.5814 9.56306 3.34943 9.00327C3.11746 8.44347 2.99806 7.84346 2.99806 7.23751C2.99806 6.63155 3.11746 6.03154 3.34943 5.47174C3.5814 4.91195 3.9214 4.40335 4.35 3.97501C5.21458 3.11322 6.38552 2.62931 7.60625 2.62931C8.82697 2.62931 9.99792 3.11322 10.8625 3.97501C10.9787 4.09217 11.117 4.18516 11.2693 4.24862C11.4216 4.31208 11.585 4.34475 11.75 4.34475C11.915 4.34475 12.0784 4.31208 12.2307 4.24862C12.383 4.18516 12.5213 4.09217 12.6375 3.97501C13.5158 3.13966 14.6816 2.67381 15.8937 2.67381C17.1059 2.67381 18.2717 3.13966 19.15 3.97501C19.4285 4.25718 19.672 4.57196 19.875 4.91251C20.057 5.16277 20.3254 5.33663 20.6282 5.40044C20.931 5.46425 21.2467 5.41347 21.5142 5.25794C21.7817 5.1024 21.982 4.85316 22.0764 4.55845C22.1708 4.26373 22.1524 3.94449 22.025 3.66251C21.716 3.14944 21.3467 2.67523 20.925 2.25001C19.7387 1.04982 18.1638 0.311385 16.4825 0.167076C14.8012 0.0227665 13.1234 0.482019 11.75 1.46251C10.6886 0.697873 9.43653 0.241351 8.13205 0.143319C6.82756 0.0452873 5.52136 0.309558 4.35757 0.906967C3.19379 1.50438 2.21768 2.41169 1.53696 3.5288C0.856247 4.6459 0.497392 5.92935 0.499999 7.23751C0.499624 8.16762 0.683957 9.08855 1.0423 9.94686C1.40065 10.8052 1.92587 11.5838 2.5875 12.2375L9.1 18.75C9.80313 19.4523 10.7562 19.8467 11.75 19.8467C12.7438 19.8467 13.6969 19.4523 14.4 18.75L16.75 16.4C16.9828 16.1658 17.1135 15.849 17.1135 15.5188C17.1135 15.1885 16.9828 14.8717 16.75 14.6375C16.5169 14.4122 16.2054 14.2863 15.8812 14.2863C15.5571 14.2863 15.2456 14.4122 15.0125 14.6375Z" fill="url(#paint0_linear_0_13)"/>
<defs>
<linearGradient id="paint0_linear_0_13" x1="0.499984" y1="10.5041" x2="25.9771" y2="10.5041" gradientUnits="userSpaceOnUse">
<stop stop-color="#AD37E0"/>
<stop offset="1" stop-color="#EE2B3B"/>
</linearGradient>
</defs>
</svg>
