<svg width="75" height="74" viewBox="0 0 75 74" fill="none" xmlns="http://www.w3.org/2000/svg">
<path d="M43.6469 43.2406C41.2531 43.2406 39.9406 42.9125 37.925 42.0844L37.1781 41.7437L36.3313 46.6656C37.7875 47.2656 40.4125 47.7812 43.1281 47.8219C49.5062 47.8219 53.675 44.8625 53.725 40.3094C53.775 37.8062 52.1312 35.9062 48.6594 34.3406C46.5531 33.325 45.2406 32.6437 45.2406 31.6125C45.2406 30.7 46.3625 29.7281 48.7063 29.7281C50.2637 29.6907 51.812 29.9769 53.2531 30.5687L53.8156 30.8187L54.6625 26.0625L54.5156 26.0937C52.7716 25.4677 50.931 25.1536 49.0781 25.1656C43.0781 25.1656 38.8438 28.1469 38.8125 32.4187C38.775 35.5594 41.825 37.3281 44.1281 38.3812C46.4938 39.4594 47.2844 40.1375 47.2781 41.1062C47.2625 42.5781 45.3875 43.2406 43.6469 43.2406ZM70.0875 25.5687H65.4C63.9406 25.5687 62.85 25.9594 62.2094 27.3906L53.1937 47.5156H59.5719L60.8469 44.2219L68.6281 44.2281C68.8187 44.9969 69.3781 47.5156 69.3781 47.5156H75L70.0875 25.5687ZM62.5938 39.7187L65.0125 33.5844C64.9813 33.6469 65.5125 32.3156 65.8187 31.4906L66.2344 33.3844L67.6375 39.7187H62.5938ZM26.3875 47.3406H32.4625L36.2594 25.3844H30.1875V25.3781L26.3875 47.3406ZM15.3844 40.5344L14.7531 37.4844V37.4937L12.6219 27.4125C12.2563 26.0156 11.1875 25.6031 9.8625 25.5531H0.078125L0 26.0156C2.20312 26.5312 4.1875 27.2781 5.9625 28.1937C6.23813 28.3549 6.43996 28.6173 6.525 28.925L11.775 47.4844H18.1938L27.7594 25.5687H21.325L15.3844 40.5344Z" fill="white"/>
</svg>
