<svg width="15" height="15" viewBox="0 0 15 15" fill="none" xmlns="http://www.w3.org/2000/svg">
<path d="M9.93687 8.26813L9.93375 8.26688C9.89437 8.25 9.85625 8.23063 9.81625 8.215C10.2627 7.86507 10.6238 7.41822 10.8721 6.90825C11.1205 6.39827 11.2497 5.8385 11.25 5.27125C11.2485 5.13956 11.2391 5.00808 11.2219 4.8775C11.2315 4.85265 11.2394 4.82718 11.2456 4.80125L11.4212 3.30313C11.476 2.82971 11.3489 2.35315 11.0655 1.96998C10.7821 1.5868 10.3637 1.32564 9.895 1.23938L9.40125 1.15C8.14435 0.920478 6.85627 0.920478 5.59937 1.15L5.105 1.23938C4.63629 1.32564 4.21788 1.5868 3.9345 1.96998C3.65112 2.35315 3.52395 2.82971 3.57875 3.30313L3.75375 4.80125C3.76014 4.82719 3.76829 4.85267 3.77812 4.8775C3.76092 5.00808 3.75152 5.13956 3.75 5.27125C3.75027 5.8385 3.87947 6.39827 4.12786 6.90825C4.37624 7.41822 4.7373 7.86507 5.18375 8.215C5.14375 8.23063 5.10562 8.25 5.06625 8.26688L5.06312 8.26813C4.03996 8.69821 3.15057 9.39434 2.48729 10.2842C1.82402 11.1741 1.41105 12.2254 1.29125 13.3288C1.27569 13.4923 1.32513 13.6553 1.42887 13.7827C1.53262 13.9101 1.68233 13.9914 1.84562 14.0093C2.00891 14.0271 2.17266 13.9799 2.30143 13.8779C2.43021 13.776 2.51367 13.6274 2.53375 13.4644C2.6217 12.6532 2.90812 11.8762 3.3677 11.202C3.82727 10.5277 4.44584 9.97713 5.16875 9.59875L7.05812 11.4881C7.17533 11.6053 7.33427 11.6711 7.5 11.6711C7.66573 11.6711 7.82467 11.6053 7.94187 11.4881L9.83125 9.59875C10.5542 9.97713 11.1727 10.5277 11.6323 11.202C12.0919 11.8762 12.3783 12.6532 12.4662 13.4644C12.4829 13.6173 12.5553 13.7588 12.6697 13.8616C12.7841 13.9645 12.9324 14.0215 13.0862 14.0219C13.1092 14.0218 13.1322 14.0206 13.155 14.0181C13.2366 14.0093 13.3157 13.9844 13.3877 13.9449C13.4598 13.9055 13.5233 13.8522 13.5747 13.7882C13.6262 13.7242 13.6645 13.6506 13.6875 13.5718C13.7105 13.493 13.7177 13.4104 13.7087 13.3288C13.5889 12.2253 13.1758 11.174 12.5124 10.2841C11.8491 9.39421 10.9595 8.69812 9.93625 8.26813H9.93687ZM4.82 3.15688C4.80185 2.99914 4.84429 2.84039 4.93874 2.71276C5.03319 2.58512 5.17259 2.49813 5.32875 2.46938L5.8225 2.38C6.93165 2.17731 8.06835 2.17731 9.1775 2.38L9.67125 2.46938C9.82741 2.49813 9.96681 2.58512 10.0613 2.71276C10.1557 2.84039 10.1982 2.99914 10.18 3.15688L10.0688 4.10313H4.93125L4.82 3.15688ZM7.5 10.1631L6.46875 9.13125C7.14848 8.98511 7.85152 8.98511 8.53125 9.13125L7.5 10.1631ZM7.5 7.77188C6.85125 7.77111 6.22814 7.5185 5.762 7.06729C5.29586 6.61608 5.02312 6.00151 5.00125 5.35313H9.99875C9.97688 6.00151 9.70413 6.61608 9.238 7.06729C8.77186 7.5185 8.14875 7.77111 7.5 7.77188Z" fill="url(#paint0_linear_0_68)"/>
<defs>
<linearGradient id="paint0_linear_0_68" x1="1.28844" y1="0.977859" x2="16.1438" y2="10.0334" gradientUnits="userSpaceOnUse">
<stop stop-color="#AD37E0"/>
<stop offset="1" stop-color="#EE2B3B"/>
</linearGradient>
</defs>
</svg>
