<svg width="16" height="16" viewBox="0 0 16 16" fill="none" xmlns="http://www.w3.org/2000/svg">
<g clip-path="url(#clip0_0_2213)">
<path d="M11.2433 6.44672L9.31333 6.16672L8.45 4.41672C8.36667 4.24672 8.19333 4.13672 8 4.13672C7.80667 4.13672 7.63667 4.24339 7.55 4.41672L6.68667 6.16672L4.75667 6.44672C4.57 6.47339 4.41333 6.60672 4.35333 6.78672C4.29333 6.96672 4.34333 7.16672 4.48 7.30005L5.87667 8.66005L5.54667 10.5834C5.5311 10.6754 5.54156 10.7699 5.57687 10.8563C5.61218 10.9427 5.67093 11.0175 5.7465 11.0723C5.82207 11.1271 5.91144 11.1596 6.00454 11.1663C6.09763 11.173 6.19073 11.1535 6.27333 11.1101L8 10.2001L9.72667 11.1067C9.8 11.1467 9.88 11.1634 9.96 11.1634C10.0633 11.1634 10.1667 11.1301 10.2533 11.0667C10.4067 10.9534 10.4833 10.7667 10.4533 10.5767L10.1233 8.65338L11.52 7.29338C11.6567 7.16005 11.7067 6.96339 11.6467 6.78005C11.5867 6.60339 11.43 6.47339 11.2433 6.44672V6.44672ZM9.23667 8.12672C9.12 8.24005 9.06333 8.40672 9.09333 8.57005L9.29667 9.75339L8.23333 9.19339C8.16 9.15672 8.08 9.13672 8 9.13672C7.92 9.13672 7.84 9.15672 7.76667 9.19339L6.70333 9.75339L6.90667 8.57005C6.93333 8.40672 6.88 8.24338 6.76333 8.12672L5.90333 7.29005L7.09 7.11672C7.25333 7.09339 7.39333 6.99005 7.46667 6.84339L8 5.76672L8.53 6.84339C8.60333 6.99005 8.74333 7.09339 8.90667 7.11672L10.0933 7.29005L9.23667 8.12672V8.12672Z" fill="#252525"/>
<path d="M7.99999 0.833252C4.04999 0.833252 0.833328 4.04992 0.833328 7.99992C0.833328 11.9533 4.04999 15.1666 7.99999 15.1666C11.95 15.1666 15.1667 11.9533 15.1667 7.99992C15.1667 4.04992 11.95 0.833252 7.99999 0.833252ZM7.99999 14.1666C4.59999 14.1666 1.83333 11.3999 1.83333 7.99992C1.83333 4.59992 4.59999 1.83325 7.99999 1.83325C11.4 1.83325 14.1667 4.59992 14.1667 7.99992C14.1667 11.3999 11.4 14.1666 7.99999 14.1666Z" fill="#252525"/>
</g>
<defs>
<clipPath id="clip0_0_2213">
<rect width="16" height="16" fill="white"/>
</clipPath>
</defs>
</svg>
