<svg width="20" height="20" viewBox="0 0 20 20" fill="none" xmlns="http://www.w3.org/2000/svg">
<path d="M17.5 14.5495V12.8125C17.4995 12.3982 17.3347 12.0011 17.0418 11.7082C16.7489 11.4153 16.3518 11.2505 15.9375 11.25H14.6875C14.3036 11.2513 13.9339 11.3949 13.6498 11.6532C13.5408 11.3526 13.342 11.0928 13.0805 10.909C12.8189 10.7251 12.5072 10.6259 12.1875 10.625H10.9375C10.694 10.6257 10.4541 10.6834 10.237 10.7936C10.0199 10.9039 9.8317 11.0635 9.6875 11.2597C9.5433 11.0635 9.35509 10.9039 9.13799 10.7936C8.9209 10.6834 8.68097 10.6257 8.4375 10.625H7.1875C6.86778 10.6259 6.55607 10.7251 6.29453 10.909C6.03299 11.0928 5.83424 11.3526 5.72517 11.6532C5.44114 11.3949 5.07138 11.2513 4.6875 11.25H3.4375C3.02325 11.2505 2.6261 11.4153 2.33318 11.7082C2.04026 12.0011 1.87549 12.3982 1.875 12.8125V14.5495C1.32772 14.7408 0.85338 15.0974 0.517503 15.57C0.181627 16.0425 0.000797976 16.6077 0 17.1875V18.4375C0.000486302 18.8518 0.165263 19.2489 0.458183 19.5418C0.751103 19.8347 1.14825 19.9995 1.5625 20H17.8125C18.2268 19.9995 18.6239 19.8347 18.9168 19.5418C19.2097 19.2489 19.3745 18.8518 19.375 18.4375V17.1875C19.3742 16.6077 19.1934 16.0425 18.8575 15.57C18.5216 15.0974 18.0473 14.7408 17.5 14.5495ZM13.75 12.8125C13.7503 12.5639 13.8491 12.3256 14.0249 12.1499C14.2006 11.9741 14.4389 11.8753 14.6875 11.875H15.9375C16.1861 11.8753 16.4244 11.9741 16.6001 12.1499C16.7759 12.3256 16.8747 12.5639 16.875 12.8125L16.8764 13.75H16.25V13.4375C16.25 13.3965 16.242 13.3558 16.2263 13.3179C16.2106 13.28 16.1875 13.2455 16.1585 13.2165C16.1295 13.1875 16.095 13.1644 16.0571 13.1487C16.0192 13.133 15.9785 13.125 15.9375 13.125H14.6875C14.6465 13.125 14.6058 13.133 14.5679 13.1487C14.53 13.1644 14.4955 13.1875 14.4665 13.2165C14.4375 13.2455 14.4144 13.28 14.3987 13.3179C14.383 13.3558 14.375 13.3965 14.375 13.4375V13.75H13.75V12.8125ZM15.625 13.75V14.375H15V13.75H15.625ZM13.75 14.375H14.375V14.6875C14.375 14.7285 14.383 14.7692 14.3987 14.8071C14.4144 14.845 14.4375 14.8795 14.4665 14.9085C14.4955 14.9375 14.53 14.9606 14.5679 14.9763C14.6058 14.992 14.6465 15 14.6875 15H15.9375C15.9785 15 16.0192 14.992 16.0571 14.9763C16.095 14.9606 16.1295 14.9375 16.1585 14.9085C16.1875 14.8795 16.2106 14.845 16.2263 14.8071C16.242 14.7692 16.25 14.7285 16.25 14.6875V14.375H16.8773L16.8777 14.6945C16.8728 14.7148 16.8699 14.7356 16.8692 14.7565C16.8527 15.1582 16.6815 15.5381 16.3913 15.8164C16.1012 16.0948 15.7146 16.2502 15.3125 16.25C14.8982 16.2495 14.5011 16.0847 14.2082 15.7918C13.9153 15.4989 13.7505 15.1018 13.75 14.6875V14.375ZM10 12.1875C10.0003 11.9389 10.0991 11.7006 10.2749 11.5249C10.4506 11.3491 10.6889 11.2503 10.9375 11.25H12.1875C12.4361 11.2503 12.6744 11.3491 12.8501 11.5249C13.0259 11.7006 13.1247 11.9389 13.125 12.1875V13.75H12.5V13.4375C12.5 13.3965 12.492 13.3558 12.4763 13.3179C12.4606 13.28 12.4375 13.2455 12.4085 13.2165C12.3795 13.1875 12.345 13.1644 12.3071 13.1487C12.2692 13.133 12.2285 13.125 12.1875 13.125H10.9375C10.8965 13.125 10.8558 13.133 10.8179 13.1487C10.78 13.1644 10.7455 13.1875 10.7165 13.2165C10.6875 13.2455 10.6644 13.28 10.6487 13.3179C10.633 13.3558 10.625 13.3965 10.625 13.4375V13.75H10V12.1875ZM11.875 13.75V14.375H11.25V13.75H11.875ZM10 14.375H10.625V14.6875C10.625 14.7285 10.633 14.7692 10.6487 14.8071C10.6644 14.845 10.6875 14.8795 10.7165 14.9085C10.7455 14.9375 10.78 14.9606 10.8179 14.9763C10.8558 14.992 10.8965 15 10.9375 15H12.1875C12.2285 15 12.2692 14.992 12.3071 14.9763C12.345 14.9606 12.3795 14.9375 12.4085 14.9085C12.4375 14.8795 12.4606 14.845 12.4763 14.8071C12.492 14.7692 12.5 14.7285 12.5 14.6875V14.375H13.125V14.6875C13.125 15.1019 12.9604 15.4993 12.6674 15.7924C12.3743 16.0854 11.9769 16.25 11.5625 16.25C11.1481 16.25 10.7507 16.0854 10.4576 15.7924C10.1646 15.4993 10 15.1019 10 14.6875V14.375ZM6.25 12.1875C6.25027 11.9389 6.34913 11.7006 6.52489 11.5249C6.70064 11.3491 6.93894 11.2503 7.1875 11.25H8.4375C8.68606 11.2503 8.92436 11.3491 9.10011 11.5249C9.27587 11.7006 9.37473 11.9389 9.375 12.1875V13.75H8.75V13.4375C8.75002 13.3965 8.74196 13.3558 8.72626 13.3179C8.71056 13.28 8.68755 13.2455 8.65852 13.2165C8.6295 13.1875 8.59504 13.1644 8.55712 13.1487C8.51919 13.133 8.47855 13.125 8.4375 13.125H7.1875C7.14646 13.125 7.10581 13.133 7.06788 13.1487C7.02996 13.1644 6.9955 13.1875 6.96648 13.2165C6.93745 13.2455 6.91444 13.28 6.89874 13.3179C6.88304 13.3558 6.87498 13.3965 6.875 13.4375V13.75H6.25V12.1875ZM8.125 13.75V14.375H7.5V13.75H8.125ZM6.25 14.375H6.875V14.6875C6.87498 14.7285 6.88304 14.7692 6.89874 14.8071C6.91444 14.845 6.93745 14.8795 6.96648 14.9085C6.9955 14.9375 7.02996 14.9606 7.06788 14.9763C7.10581 14.992 7.14646 15 7.1875 15H8.4375C8.47855 15 8.51919 14.992 8.55712 14.9763C8.59504 14.9606 8.6295 14.9375 8.65852 14.9085C8.68755 14.8795 8.71056 14.845 8.72626 14.8071C8.74196 14.7692 8.75002 14.7285 8.75 14.6875V14.375H9.375V14.6875C9.375 15.1019 9.21038 15.4993 8.91735 15.7924C8.62433 16.0854 8.2269 16.25 7.8125 16.25C7.3981 16.25 7.00067 16.0854 6.70765 15.7924C6.41462 15.4993 6.25 15.1019 6.25 14.6875V14.375ZM2.5 12.8125C2.50027 12.5639 2.59913 12.3256 2.77489 12.1499C2.95064 11.9741 3.18894 11.8753 3.4375 11.875H4.6875C4.93606 11.8753 5.17436 11.9741 5.35011 12.1499C5.52587 12.3256 5.62473 12.5639 5.625 12.8125V13.75H5V13.4375C5.00002 13.3965 4.99196 13.3558 4.97626 13.3179C4.96056 13.28 4.93755 13.2455 4.90852 13.2165C4.8795 13.1875 4.84504 13.1644 4.80712 13.1487C4.76919 13.133 4.72854 13.125 4.6875 13.125H3.4375C3.39646 13.125 3.35581 13.133 3.31788 13.1487C3.27996 13.1644 3.2455 13.1875 3.21648 13.2165C3.18745 13.2455 3.16444 13.28 3.14874 13.3179C3.13304 13.3558 3.12498 13.3965 3.125 13.4375V13.75H2.5V12.8125ZM4.375 13.75V14.375H3.75V13.75H4.375ZM2.5 14.375H3.125V14.6875C3.12498 14.7285 3.13304 14.7692 3.14874 14.8071C3.16444 14.845 3.18745 14.8795 3.21648 14.9085C3.2455 14.9375 3.27996 14.9606 3.31788 14.9763C3.35581 14.992 3.39646 15 3.4375 15H4.6875C4.72854 15 4.76919 14.992 4.80712 14.9763C4.84504 14.9606 4.8795 14.9375 4.90852 14.9085C4.93755 14.8795 4.96056 14.845 4.97626 14.8071C4.99196 14.7692 5.00002 14.7285 5 14.6875V14.375H5.625V14.6875C5.62554 15.0957 5.46613 15.4878 5.18095 15.7798C4.89577 16.0718 4.50752 16.2404 4.09947 16.2495C3.69141 16.2586 3.29603 16.1075 2.99812 15.8285C2.7002 15.5495 2.52346 15.1649 2.5058 14.7571C2.50602 14.7338 2.50408 14.7105 2.5 14.6875V14.375ZM18.75 18.4375C18.7497 18.6861 18.6509 18.9244 18.4751 19.1001C18.2994 19.2759 18.0611 19.3747 17.8125 19.375H1.5625C1.31394 19.3747 1.07564 19.2759 0.899887 19.1001C0.724131 18.9244 0.625271 18.6861 0.625 18.4375V17.1875C0.624936 16.7623 0.749204 16.3463 0.982511 15.9907C1.21582 15.6352 1.54798 15.3556 1.93813 15.1865C2.03261 15.6139 2.25422 16.0028 2.57381 16.3019C2.89341 16.6011 3.29604 16.7966 3.72879 16.8627C4.16154 16.9287 4.60416 16.8624 4.99848 16.6722C5.3928 16.4821 5.72036 16.1771 5.93813 15.7973C6.12906 16.1253 6.40271 16.3974 6.73173 16.5865C7.06075 16.7756 7.43363 16.8751 7.81312 16.875C8.19261 16.8749 8.56543 16.7752 8.89435 16.5859C9.22326 16.3966 9.49675 16.1243 9.6875 15.7963C9.8765 16.1267 10.1494 16.4013 10.4787 16.5923C10.8079 16.7834 11.1818 16.884 11.5625 16.8841C11.9431 16.8843 12.3171 16.7838 12.6464 16.593C12.9758 16.4021 13.2489 16.1276 13.4381 15.7973C13.6585 16.1733 13.9867 16.4744 14.3802 16.6618C14.7736 16.8492 15.2143 16.9143 15.6451 16.8485C16.0759 16.7828 16.4771 16.5893 16.7968 16.293C17.1165 15.9968 17.3399 15.6115 17.4382 15.1869C17.828 15.3563 18.1598 15.6358 18.3929 15.9913C18.626 16.3467 18.7501 16.7625 18.75 17.1875V18.4375ZM17.8125 0H1.5625C1.14825 0.000486302 0.751103 0.165263 0.458183 0.458183C0.165263 0.751103 0.000486302 1.14825 0 1.5625V2.8125C0.000797976 3.39226 0.181627 3.95747 0.517503 4.43003C0.85338 4.90259 1.32772 5.25917 1.875 5.45052V7.1875C1.87549 7.60175 2.04026 7.9989 2.33318 8.29182C2.6261 8.58474 3.02325 8.74951 3.4375 8.75H4.6875C5.07138 8.74873 5.44114 8.60507 5.72517 8.34683C5.83424 8.64736 6.03299 8.90715 6.29453 9.09104C6.55607 9.27493 6.86778 9.37406 7.1875 9.375H8.4375C8.68097 9.37434 8.9209 9.31658 9.13799 9.20636C9.35509 9.09614 9.5433 8.93653 9.6875 8.74035C9.8317 8.93653 10.0199 9.09614 10.237 9.20636C10.4541 9.31658 10.694 9.37434 10.9375 9.375H12.1875C12.5072 9.37406 12.8189 9.27493 13.0805 9.09104C13.342 8.90715 13.5408 8.64736 13.6498 8.34683C13.9339 8.60507 14.3036 8.74873 14.6875 8.75H15.9375C16.3518 8.74951 16.7489 8.58474 17.0418 8.29182C17.3347 7.9989 17.4995 7.60175 17.5 7.1875V5.45052C18.0473 5.25917 18.5216 4.90259 18.8575 4.43003C19.1934 3.95747 19.3742 3.39226 19.375 2.8125V1.5625C19.3745 1.14825 19.2097 0.751103 18.9168 0.458183C18.6239 0.165263 18.2268 0.000486302 17.8125 0V0ZM5.625 7.1875C5.62473 7.43606 5.52587 7.67436 5.35011 7.85011C5.17436 8.02587 4.93606 8.12473 4.6875 8.125H3.4375C3.18894 8.12473 2.95064 8.02587 2.77489 7.85011C2.59913 7.67436 2.50027 7.43606 2.5 7.1875V6.25H3.125V6.5625C3.12498 6.60354 3.13304 6.64419 3.14874 6.68212C3.16444 6.72004 3.18745 6.7545 3.21648 6.78352C3.2455 6.81255 3.27996 6.83556 3.31788 6.85126C3.35581 6.86696 3.39646 6.87502 3.4375 6.875H4.6875C4.72854 6.87502 4.76919 6.86696 4.80712 6.85126C4.84504 6.83556 4.8795 6.81255 4.90852 6.78352C4.93755 6.7545 4.96056 6.72004 4.97626 6.68212C4.99196 6.64419 5.00002 6.60354 5 6.5625V6.25H5.625V7.1875ZM3.75 6.25V5.625H4.375V6.25H3.75ZM5.625 5.625H5V5.3125C5.00002 5.27146 4.99196 5.23081 4.97626 5.19288C4.96056 5.15496 4.93755 5.1205 4.90852 5.09148C4.8795 5.06245 4.84504 5.03944 4.80712 5.02374C4.76919 5.00804 4.72854 4.99998 4.6875 5H3.4375C3.39646 4.99998 3.35581 5.00804 3.31788 5.02374C3.27996 5.03944 3.2455 5.06245 3.21648 5.09148C3.18745 5.1205 3.16444 5.15496 3.14874 5.19288C3.13304 5.23081 3.12498 5.27146 3.125 5.3125V5.625H2.5V5.3125C2.5 4.8981 2.66462 4.50067 2.95765 4.20765C3.25067 3.91462 3.6481 3.75 4.0625 3.75C4.4769 3.75 4.87433 3.91462 5.16735 4.20765C5.46038 4.50067 5.625 4.8981 5.625 5.3125V5.625ZM9.375 7.8125C9.37473 8.06106 9.27587 8.29936 9.10011 8.47511C8.92436 8.65087 8.68606 8.74973 8.4375 8.75H7.1875C6.93894 8.74973 6.70064 8.65087 6.52489 8.47511C6.34913 8.29936 6.25027 8.06106 6.25 7.8125V6.25H6.875V6.5625C6.87498 6.60354 6.88304 6.64419 6.89874 6.68212C6.91444 6.72004 6.93745 6.7545 6.96648 6.78352C6.9955 6.81255 7.02996 6.83556 7.06788 6.85126C7.10581 6.86696 7.14646 6.87502 7.1875 6.875H8.4375C8.47855 6.87502 8.51919 6.86696 8.55712 6.85126C8.59504 6.83556 8.6295 6.81255 8.65852 6.78352C8.68755 6.7545 8.71056 6.72004 8.72626 6.68212C8.74196 6.64419 8.75002 6.60354 8.75 6.5625V6.25H9.375V7.8125ZM7.5 6.25V5.625H8.125V6.25H7.5ZM9.375 5.625H8.75V5.3125C8.75002 5.27146 8.74196 5.23081 8.72626 5.19288C8.71056 5.15496 8.68755 5.1205 8.65852 5.09148C8.6295 5.06245 8.59504 5.03944 8.55712 5.02374C8.51919 5.00804 8.47855 4.99998 8.4375 5H7.1875C7.14646 4.99998 7.10581 5.00804 7.06788 5.02374C7.02996 5.03944 6.9955 5.06245 6.96648 5.09148C6.93745 5.1205 6.91444 5.15496 6.89874 5.19288C6.88304 5.23081 6.87498 5.27146 6.875 5.3125V5.625H6.25V5.3125C6.25 4.8981 6.41462 4.50067 6.70765 4.20765C7.00067 3.91462 7.3981 3.75 7.8125 3.75C8.2269 3.75 8.62433 3.91462 8.91735 4.20765C9.21038 4.50067 9.375 4.8981 9.375 5.3125V5.625ZM13.125 7.8125C13.1247 8.06106 13.0259 8.29936 12.8501 8.47511C12.6744 8.65087 12.4361 8.74973 12.1875 8.75H10.9375C10.6889 8.74973 10.4506 8.65087 10.2749 8.47511C10.0991 8.29936 10.0003 8.06106 10 7.8125V6.25H10.625V6.5625C10.625 6.60354 10.633 6.64419 10.6487 6.68212C10.6644 6.72004 10.6875 6.7545 10.7165 6.78352C10.7455 6.81255 10.78 6.83556 10.8179 6.85126C10.8558 6.86696 10.8965 6.87502 10.9375 6.875H12.1875C12.2285 6.87502 12.2692 6.86696 12.3071 6.85126C12.345 6.83556 12.3795 6.81255 12.4085 6.78352C12.4375 6.7545 12.4606 6.72004 12.4763 6.68212C12.492 6.64419 12.5 6.60354 12.5 6.5625V6.25H13.125V7.8125ZM11.25 6.25V5.625H11.875V6.25H11.25ZM13.125 5.625H12.5V5.3125C12.5 5.27146 12.492 5.23081 12.4763 5.19288C12.4606 5.15496 12.4375 5.1205 12.4085 5.09148C12.3795 5.06245 12.345 5.03944 12.3071 5.02374C12.2692 5.00804 12.2285 4.99998 12.1875 5H10.9375C10.8965 4.99998 10.8558 5.00804 10.8179 5.02374C10.78 5.03944 10.7455 5.06245 10.7165 5.09148C10.6875 5.1205 10.6644 5.15496 10.6487 5.19288C10.633 5.23081 10.625 5.27146 10.625 5.3125V5.625H10V5.3125C10 4.8981 10.1646 4.50067 10.4576 4.20765C10.7507 3.91462 11.1481 3.75 11.5625 3.75C11.9769 3.75 12.3743 3.91462 12.6674 4.20765C12.9604 4.50067 13.125 4.8981 13.125 5.3125V5.625ZM16.875 7.1875C16.8747 7.43606 16.7759 7.67436 16.6001 7.85011C16.4244 8.02587 16.1861 8.12473 15.9375 8.125H14.6875C14.4389 8.12473 14.2006 8.02587 14.0249 7.85011C13.8491 7.67436 13.7503 7.43606 13.75 7.1875V6.25H14.375V6.5625C14.375 6.60354 14.383 6.64419 14.3987 6.68212C14.4144 6.72004 14.4375 6.7545 14.4665 6.78352C14.4955 6.81255 14.53 6.83556 14.5679 6.85126C14.6058 6.86696 14.6465 6.87502 14.6875 6.875H15.9375C15.9785 6.87502 16.0192 6.86696 16.0571 6.85126C16.095 6.83556 16.1295 6.81255 16.1585 6.78352C16.1875 6.7545 16.2106 6.72004 16.2263 6.68212C16.242 6.64419 16.25 6.60354 16.25 6.5625V6.25H16.875V7.1875ZM15 6.25V5.625H15.625V6.25H15ZM16.875 5.625H16.25V5.3125C16.25 5.27146 16.242 5.23081 16.2263 5.19288C16.2106 5.15496 16.1875 5.1205 16.1585 5.09148C16.1295 5.06245 16.095 5.03944 16.0571 5.02374C16.0192 5.00804 15.9785 4.99998 15.9375 5H14.6875C14.6465 4.99998 14.6058 5.00804 14.5679 5.02374C14.53 5.03944 14.4955 5.06245 14.4665 5.09148C14.4375 5.1205 14.4144 5.15496 14.3987 5.19288C14.383 5.23081 14.375 5.27146 14.375 5.3125V5.625H13.75V5.3125C13.75 4.8981 13.9146 4.50067 14.2076 4.20765C14.5007 3.91462 14.8981 3.75 15.3125 3.75C15.7269 3.75 16.1243 3.91462 16.4174 4.20765C16.7104 4.50067 16.875 4.8981 16.875 5.3125V5.625ZM18.75 2.8125C18.75 3.23769 18.6258 3.65363 18.3926 4.00914C18.1593 4.36464 17.8272 4.64422 17.4372 4.81346C17.3395 4.38845 17.1163 4.00259 16.7967 3.70595C16.477 3.4093 16.0756 3.21555 15.6445 3.14983C15.2134 3.08411 14.7724 3.14945 14.3789 3.33738C13.9854 3.52531 13.6574 3.82715 13.4375 4.20375C13.2467 3.87558 12.9731 3.60323 12.6441 3.41393C12.3151 3.22462 11.9421 3.12499 11.5625 3.12499C11.1829 3.12499 10.8099 3.22462 10.4809 3.41393C10.1519 3.60323 9.87829 3.87558 9.6875 4.20375C9.49671 3.87558 9.22312 3.60323 8.89409 3.41393C8.56506 3.22462 8.1921 3.12499 7.8125 3.12499C7.4329 3.12499 7.05994 3.22462 6.73091 3.41393C6.40188 3.60323 6.12829 3.87558 5.9375 4.20375C5.71761 3.82715 5.38963 3.52531 4.9961 3.33738C4.60257 3.14945 4.16165 3.08411 3.73053 3.14983C3.29942 3.21555 2.89799 3.40929 2.57833 3.70594C2.25867 4.00258 2.03552 4.38843 1.93782 4.81345C1.54777 4.64421 1.21569 4.36463 0.982442 4.00913C0.749195 3.65362 0.624953 3.23769 0.625 2.8125V1.5625C0.625271 1.31394 0.724131 1.07564 0.899887 0.899887C1.07564 0.724131 1.31394 0.625271 1.5625 0.625H17.8125C18.0611 0.625271 18.2994 0.724131 18.4751 0.899887C18.6509 1.07564 18.7497 1.31394 18.75 1.5625V2.8125Z" fill="url(#paint0_linear_0_2160)"/>
<defs>
<linearGradient id="paint0_linear_0_2160" x1="0" y1="0" x2="22.9522" y2="14.2304" gradientUnits="userSpaceOnUse">
<stop stop-color="#AD37E0"/>
<stop offset="1" stop-color="#EE2B3B"/>
</linearGradient>
</defs>
</svg>
