<svg width="23" height="20" viewBox="0 0 23 20" fill="none" xmlns="http://www.w3.org/2000/svg">
<path d="M17.112 2.3982H18.8419C19.9861 2.3982 21.0259 2.86413 21.7791 3.61423C22.5322 4.36434 23 5.40029 23 6.53961V15.8585C23 16.9981 22.5323 18.0338 21.7792 18.7839C21.0261 19.5341 19.9861 20 18.8419 20H4.1581C3.01391 20 1.97412 19.5341 1.22101 18.7839C0.467795 18.0338 0 16.9981 0 15.8585V6.53961C0 5.39998 0.467795 4.36423 1.22101 3.61413C1.97412 2.86392 3.01391 2.3982 4.1581 2.3982H5.88814C6.05163 1.87061 6.37105 1.40646 6.76392 1.03125C7.43193 0.392872 8.34895 0 9.05893 0H13.941C14.651 0 15.5681 0.392872 16.236 1.03125C16.6287 1.40646 16.9483 1.87061 17.112 2.3982ZM11.5 6.15155C12.8991 6.15155 14.1664 6.71666 15.0834 7.63002C16.0005 8.54348 16.5679 9.8056 16.5679 11.1992C16.5679 12.5927 16.0005 13.8548 15.0834 14.7683C14.1662 15.6816 12.8993 16.2468 11.5 16.2468C10.1007 16.2468 8.83384 15.6816 7.91662 14.7683C6.9996 13.8547 6.43223 12.5928 6.43223 11.1992C6.43223 9.8055 6.9996 8.54358 7.91662 7.63002C8.83363 6.71666 10.1009 6.15155 11.5 6.15155ZM13.9811 8.72805C13.3463 8.09584 12.4691 7.70485 11.5 7.70485C10.531 7.70485 9.65369 8.09584 9.01895 8.72805C8.38441 9.36026 7.99165 10.2341 7.99165 11.1992C7.99165 12.1642 8.38441 13.0381 9.01895 13.6703C9.65369 14.3024 10.531 14.6936 11.5 14.6936C12.4689 14.6936 13.3463 14.3024 13.9811 13.6703C14.6158 13.0381 15.0084 12.1643 15.0084 11.1992C15.0084 10.234 14.6158 9.36026 13.9811 8.72805ZM18.8419 3.9514H16.4508C16.0202 3.9514 15.6711 3.60368 15.6711 3.17485C15.6711 2.79149 15.4551 2.43123 15.1579 2.14747C14.7731 1.77968 14.2885 1.5533 13.9411 1.5533H9.05903C8.7116 1.5533 8.22701 1.77968 7.84222 2.14747C7.54505 2.43133 7.32899 2.79149 7.32899 3.17485C7.32899 3.60368 6.97988 3.9514 6.54933 3.9514H4.15821C3.44424 3.9514 2.79459 4.24289 2.32344 4.71217C1.85229 5.18154 1.55952 5.82859 1.55952 6.53972V15.8586C1.55952 16.5695 1.85229 17.2168 2.32344 17.686C2.7947 18.1553 3.44434 18.4469 4.15821 18.4469H18.842C19.556 18.4469 20.2058 18.1553 20.6769 17.686C21.1481 17.2167 21.4407 16.5697 21.4407 15.8586V6.53972C21.4407 5.8288 21.148 5.18154 20.6768 4.71237C20.2055 4.243 19.5558 3.9514 18.8419 3.9514Z" fill="#252525"/>
</svg>
