<svg width="10" height="7" viewBox="0 0 10 7" fill="none" xmlns="http://www.w3.org/2000/svg">
<path d="M1.18299 1.18299C1.3002 1.06582 1.45914 1 1.62487 1C1.79059 1 1.94954 1.06582 2.06674 1.18299L5.16049 4.27674L8.25424 1.18299C8.37212 1.06914 8.52999 1.00615 8.69387 1.00757C8.85774 1.00899 9.0145 1.07472 9.13038 1.1906C9.24626 1.30648 9.31199 1.46324 9.31341 1.62712C9.31484 1.79099 9.25184 1.94886 9.13799 2.06674L5.60237 5.60237C5.48516 5.71954 5.32622 5.78536 5.16049 5.78536C4.99476 5.78536 4.83582 5.71954 4.71862 5.60237L1.18299 2.06674C1.06582 1.94954 1 1.79059 1 1.62487C1 1.45914 1.06582 1.3002 1.18299 1.18299Z" fill="#252525" stroke="white"/>
</svg>
