<svg width="14" height="14" viewBox="0 0 14 14" fill="none" xmlns="http://www.w3.org/2000/svg">
<path d="M9.78195 3.4846C9.65582 3.4846 9.54081 3.39553 9.51858 3.2657C9.44805 2.87249 9.54452 2.46066 9.79307 2.10833C10.0713 1.71141 10.5053 1.43323 10.9912 1.34786C11.0617 1.33674 11.1248 1.29586 11.1656 1.23656C11.2064 1.17725 11.2249 1.10302 11.2101 1.03249C11.1953 0.962065 11.1582 0.89895 11.0988 0.858178C11.0395 0.817407 10.9653 0.798874 10.8948 0.813701C9.72264 1.08449 9.48521 1.69658 9.18466 2.47188C9.07707 2.74637 8.96958 3.02827 8.81 3.31759C8.73957 3.44742 8.57638 3.49571 8.44656 3.42148C8.31662 3.35105 8.26843 3.18775 8.34267 3.05793C8.48362 2.80197 8.58751 2.53488 8.6876 2.27522C9.00297 1.46286 9.32935 0.624443 10.791 0.286946C11.0173 0.246069 11.2324 0.294359 11.4067 0.41678C11.5848 0.5392 11.6998 0.724619 11.7406 0.936107C11.7815 1.14748 11.7295 1.36266 11.607 1.5407C11.4846 1.71882 11.2992 1.83381 11.0877 1.8709C10.7427 1.93391 10.4311 2.13057 10.2345 2.40877C10.0713 2.64249 10.0046 2.91327 10.049 3.16553C10.075 3.31019 9.97851 3.45114 9.83385 3.47708C9.81902 3.47708 9.80049 3.48079 9.78566 3.48079L9.78195 3.4846Z" fill="url(#paint0_linear_11_4535)"/>
<path d="M4.38862 13.7675C4.03247 13.7675 3.70609 13.53 3.60963 13.1665C3.50574 12.777 3.7061 12.3727 4.06966 12.2168C4.30328 11.9869 4.61125 11.7124 4.95997 11.4007C6.41777 10.0987 8.62122 8.13635 8.22812 6.81201C8.18735 6.67105 8.26519 6.52268 8.40995 6.48191C8.55091 6.43733 8.69928 6.51897 8.74005 6.66363C9.22972 8.3107 6.96687 10.3287 5.31601 11.8013C4.95246 12.1278 4.63719 12.4097 4.40719 12.636C4.37753 12.6657 4.34418 12.6879 4.3033 12.699C4.16605 12.7436 4.08822 12.8883 4.12528 13.0292C4.16235 13.1739 4.31453 13.263 4.45917 13.2221C5.34948 12.9847 6.60323 12.5507 7.50828 11.8273C8.30221 11.193 8.90679 10.3658 9.15906 9.56451C9.34459 8.97464 9.35942 8.40714 9.37054 7.86174C9.37795 7.4463 9.38907 7.05309 9.47443 6.68954C9.50779 6.54488 9.65615 6.45963 9.79709 6.49299C9.94175 6.52635 10.0271 6.671 9.99375 6.81565C9.91951 7.1236 9.9121 7.48718 9.90469 7.87296C9.89357 8.42935 9.87874 9.0637 9.66726 9.72769C9.38165 10.6291 8.71395 11.5491 7.83848 12.2465C6.86283 13.0292 5.53482 13.4891 4.59255 13.7414C4.52202 13.7599 4.4553 13.7675 4.38477 13.7675L4.38862 13.7675Z" fill="url(#paint1_linear_11_4535)"/>
<path d="M1.07922 10.4588C1.0088 10.4588 0.941975 10.4513 0.87155 10.4328C0.441173 10.3178 0.185224 9.87631 0.300226 9.44604C0.548774 8.50756 1.0125 7.17948 1.79151 6.20012C2.49256 5.32464 3.40892 4.66066 4.31034 4.37122C4.92976 4.17467 5.52331 4.11897 6.05007 4.07079C6.82165 3.99655 7.43004 3.94095 7.86402 3.51069C8.54666 2.82805 9.65575 2.82805 10.3384 3.51069C10.6574 3.82967 11.058 3.94467 11.4401 3.82224C11.8222 3.70353 12.0929 3.38086 12.1672 2.95788C12.2451 2.52018 12.6643 2.22717 13.1019 2.30501C13.3134 2.34218 13.4989 2.46089 13.6213 2.6389C13.7437 2.81692 13.792 3.02839 13.7548 3.23977C13.4099 4.73106 12.5567 5.12427 11.7295 5.50265C11.2583 5.71784 10.7723 5.94043 10.3347 6.37441C9.66686 7.03468 8.58372 7.0384 7.87145 6.38182C7.55618 6.0925 7.21117 5.95896 6.80682 5.9775C5.42313 6.04051 3.77995 7.84345 2.58167 9.16026C2.30717 9.4607 2.04751 9.7463 1.82119 9.97633C1.69136 10.2768 1.39833 10.466 1.07926 10.466L1.07922 10.4588ZM9.09929 3.52934C8.78762 3.52934 8.47607 3.64805 8.23864 3.88549C7.67111 4.45302 6.90695 4.52725 6.0983 4.60137C5.57515 4.64965 5.0336 4.70155 4.46978 4.87957C3.66485 5.13553 2.84126 5.7365 2.2069 6.53035C1.4836 7.43548 1.04954 8.68563 0.812103 9.57973C0.79357 9.65026 0.804689 9.72438 0.838154 9.7875C0.875219 9.85051 0.934523 9.89499 1.00505 9.91363C1.1423 9.95069 1.29066 9.87275 1.33515 9.7355C1.34997 9.69473 1.37232 9.66137 1.39826 9.63162C1.62457 9.40541 1.89536 9.10858 2.18097 8.79331C3.44594 7.40591 5.17449 5.50672 6.78079 5.43623C7.32237 5.41399 7.80832 5.59572 8.22748 5.9815C8.7394 6.45265 9.48133 6.45637 9.9562 5.98892C10.4607 5.49182 11.0134 5.23587 11.5031 5.01327C12.308 4.6424 12.9461 4.35299 13.228 3.12888C13.2391 3.06947 13.2206 2.99905 13.1798 2.93964C13.1389 2.88033 13.0759 2.83946 13.0054 2.82833C12.9313 2.81351 12.8607 2.82833 12.8014 2.87292C12.742 2.91369 12.7012 2.9767 12.6901 3.04723C12.5825 3.65933 12.1634 4.14902 11.5995 4.32703C11.0283 4.50505 10.4162 4.34185 9.95992 3.88193C9.72249 3.6445 9.41082 3.52578 9.09927 3.52578L9.09929 3.52934Z" fill="url(#paint2_linear_11_4535)"/>
<path d="M9.09986 5.60276C8.92184 5.60276 8.75482 5.53234 8.63242 5.40992C8.51002 5.2875 8.43958 5.11688 8.43958 4.94248C8.43958 4.76447 8.51 4.59756 8.63242 4.47144C8.89208 4.21167 9.31134 4.21167 9.57101 4.47144C9.83067 4.731 9.83067 5.15026 9.57101 5.40992C9.44488 5.53605 9.27789 5.60276 9.09986 5.60276ZM9.09986 4.80895C9.0665 4.80895 9.03303 4.82006 9.00709 4.84601C8.97373 4.87948 8.97002 4.91654 8.97002 4.93878C8.97002 4.96102 8.97373 4.99819 9.00709 5.03155C9.04055 5.06491 9.07762 5.06861 9.09986 5.06861C9.11839 5.06861 9.15916 5.06491 9.19263 5.03155C9.24452 4.97955 9.24452 4.89801 9.19263 4.84601C9.16668 4.82007 9.13322 4.80895 9.09986 4.80895Z" fill="url(#paint3_linear_11_4535)"/>
<defs>
<linearGradient id="paint0_linear_11_4535" x1="8.30768" y1="0.272705" x2="12.1486" y2="2.91054" gradientUnits="userSpaceOnUse">
<stop stop-color="#AD37E0"/>
<stop offset="1" stop-color="#EE2B3B"/>
</linearGradient>
<linearGradient id="paint1_linear_11_4535" x1="3.58228" y1="6.46973" x2="11.576" y2="10.9694" gradientUnits="userSpaceOnUse">
<stop stop-color="#AD37E0"/>
<stop offset="1" stop-color="#EE2B3B"/>
</linearGradient>
<linearGradient id="paint2_linear_11_4535" x1="0.272705" y1="2.29248" x2="10.7292" y2="13.3411" gradientUnits="userSpaceOnUse">
<stop stop-color="#AD37E0"/>
<stop offset="1" stop-color="#EE2B3B"/>
</linearGradient>
<linearGradient id="paint3_linear_11_4535" x1="8.43958" y1="4.27661" x2="9.9825" y2="5.26411" gradientUnits="userSpaceOnUse">
<stop stop-color="#AD37E0"/>
<stop offset="1" stop-color="#EE2B3B"/>
</linearGradient>
</defs>
</svg>
