<svg width="30" height="30" viewBox="0 0 30 30" fill="none" xmlns="http://www.w3.org/2000/svg">
<path fill-rule="evenodd" clip-rule="evenodd" d="M5.00004 16.25H3.75004C3.50285 16.25 3.26123 16.1766 3.05572 16.0393C2.8502 15.9019 2.69003 15.7067 2.59544 15.4783C2.50085 15.25 2.4761 14.9987 2.52431 14.7562C2.57252 14.5138 2.69153 14.2911 2.86629 14.1163L14.1163 2.86626C14.2323 2.75008 14.37 2.6579 14.5217 2.59501C14.6733 2.53213 14.8359 2.49976 15 2.49976C15.1642 2.49976 15.3268 2.53213 15.4784 2.59501C15.63 2.6579 15.7678 2.75008 15.8838 2.86626L27.1338 14.1163C27.3086 14.2911 27.4276 14.5138 27.4758 14.7562C27.524 14.9987 27.4992 15.25 27.4046 15.4783C27.31 15.7067 27.1499 15.9019 26.9444 16.0393C26.7388 16.1766 26.4972 16.25 26.25 16.25H25V25C25 26.3788 23.8788 27.5 22.5 27.5H7.50004C6.12129 27.5 5.00004 26.3788 5.00004 25V16.25ZM22.5 13.0175L15 5.51751L7.50004 13.0175V25H22.5013L22.5 18.75V13.0175ZM21.1876 17.8889C21.1263 18.0764 19.6288 22.5002 15.0001 22.5002C10.3713 22.5002 8.87381 18.0764 8.81256 17.8889L11.1863 17.1052C11.2251 17.2239 12.2026 20.0002 15.0001 20.0002C17.819 20.0002 18.7907 17.1763 18.8123 17.1135L18.8126 17.1127L21.1876 17.8889Z" fill="white"/>
</svg>
