<svg width="13" height="13" viewBox="0 0 13 13" fill="none" xmlns="http://www.w3.org/2000/svg">
<path d="M6.50001 0.199951C5.25399 0.199951 4.03595 0.56944 2.99992 1.26169C1.96389 1.95395 1.15641 2.93787 0.679574 4.08905C0.202742 5.24022 0.0779809 6.50694 0.321068 7.72902C0.564155 8.9511 1.16417 10.0737 2.04524 10.9547C2.92631 11.8358 4.04887 12.4358 5.27095 12.6789C6.49303 12.922 7.75975 12.7972 8.91092 12.3204C10.0621 11.8436 11.046 11.0361 11.7383 10C12.4305 8.96401 12.8 7.74597 12.8 6.49995C12.8 4.82909 12.1363 3.22666 10.9548 2.04518C9.77331 0.863699 8.17088 0.199951 6.50001 0.199951V0.199951ZM6.50001 1.09995C7.7765 1.10014 9.01122 1.55479 9.98301 2.38245L2.38251 9.98295C1.71915 9.19701 1.29402 8.23797 1.15714 7.21865C1.02025 6.19933 1.17731 5.16211 1.60982 4.229C2.04234 3.2959 2.73234 2.50571 3.59864 1.9514C4.46495 1.39708 5.47154 1.10168 6.50001 1.09995V1.09995ZM6.50001 11.8999C5.22353 11.8998 3.98881 11.4451 3.01701 10.6174L10.622 3.01245C11.287 3.79859 11.7134 4.75847 11.8509 5.77893C11.9884 6.79939 11.8312 7.83788 11.398 8.77198C10.9648 9.70609 10.2735 10.4969 9.40568 11.0511C8.53786 11.6053 7.52969 11.8998 6.50001 11.8999V11.8999Z" fill="white" fill-opacity="0.5"/>
</svg>
