<svg width="13" height="15" viewBox="0 0 13 15" fill="none" xmlns="http://www.w3.org/2000/svg">
<path d="M8.93687 8.26813L8.93375 8.26688C8.89437 8.25 8.85625 8.23063 8.81625 8.215C9.2627 7.86507 9.62376 7.41822 9.87214 6.90825C10.1205 6.39827 10.2497 5.8385 10.25 5.27125C10.2485 5.13956 10.2391 5.00808 10.2219 4.8775C10.2315 4.85265 10.2394 4.82718 10.2456 4.80125L10.4212 3.30313C10.476 2.82971 10.3489 2.35315 10.0655 1.96998C9.78212 1.5868 9.36371 1.32564 8.895 1.23938L8.40125 1.15C7.14435 0.920478 5.85627 0.920478 4.59937 1.15L4.105 1.23938C3.63629 1.32564 3.21788 1.5868 2.9345 1.96998C2.65112 2.35315 2.52395 2.82971 2.57875 3.30313L2.75375 4.80125C2.76014 4.82719 2.76829 4.85267 2.77812 4.8775C2.76092 5.00808 2.75152 5.13956 2.75 5.27125C2.75027 5.8385 2.87947 6.39827 3.12786 6.90825C3.37624 7.41822 3.7373 7.86507 4.18375 8.215C4.14375 8.23063 4.10562 8.25 4.06625 8.26688L4.06312 8.26813C3.03996 8.69821 2.15057 9.39434 1.48729 10.2842C0.824019 11.1741 0.411046 12.2254 0.29125 13.3288C0.275688 13.4923 0.325127 13.6553 0.428873 13.7827C0.532618 13.9101 0.682328 13.9914 0.84562 14.0093C1.00891 14.0271 1.17266 13.9799 1.30143 13.8779C1.43021 13.776 1.51367 13.6274 1.53375 13.4644C1.6217 12.6532 1.90812 11.8762 2.3677 11.202C2.82727 10.5277 3.44584 9.97713 4.16875 9.59875L6.05812 11.4881C6.17533 11.6053 6.33427 11.6711 6.5 11.6711C6.66573 11.6711 6.82467 11.6053 6.94187 11.4881L8.83125 9.59875C9.55416 9.97713 10.1727 10.5277 10.6323 11.202C11.0919 11.8762 11.3783 12.6532 11.4662 13.4644C11.4829 13.6173 11.5553 13.7588 11.6697 13.8616C11.7841 13.9645 11.9324 14.0215 12.0862 14.0219C12.1092 14.0218 12.1322 14.0206 12.155 14.0181C12.2366 14.0093 12.3157 13.9844 12.3877 13.9449C12.4598 13.9055 12.5233 13.8522 12.5747 13.7882C12.6262 13.7242 12.6645 13.6506 12.6875 13.5718C12.7105 13.493 12.7177 13.4104 12.7087 13.3288C12.5889 12.2253 12.1758 11.174 11.5124 10.2841C10.8491 9.39421 9.95953 8.69812 8.93625 8.26813H8.93687ZM3.82 3.15688C3.80185 2.99914 3.84429 2.84039 3.93874 2.71276C4.03319 2.58512 4.17259 2.49813 4.32875 2.46938L4.8225 2.38C5.93165 2.17731 7.06835 2.17731 8.1775 2.38L8.67125 2.46938C8.82741 2.49813 8.96681 2.58512 9.06126 2.71276C9.15571 2.84039 9.19815 2.99914 9.18 3.15688L9.06875 4.10313H3.93125L3.82 3.15688ZM6.5 10.1631L5.46875 9.13125C6.14848 8.98511 6.85152 8.98511 7.53125 9.13125L6.5 10.1631ZM6.5 7.77188C5.85125 7.77111 5.22814 7.5185 4.762 7.06729C4.29586 6.61608 4.02312 6.00151 4.00125 5.35313H8.99875C8.97688 6.00151 8.70413 6.61608 8.238 7.06729C7.77186 7.5185 7.14875 7.77111 6.5 7.77188Z" fill="url(#paint0_linear_0_2200)"/>
<defs>
<linearGradient id="paint0_linear_0_2200" x1="0.288437" y1="0.977859" x2="15.1438" y2="10.0334" gradientUnits="userSpaceOnUse">
<stop stop-color="#AD37E0"/>
<stop offset="1" stop-color="#EE2B3B"/>
</linearGradient>
</defs>
</svg>
