<svg width="20" height="20" viewBox="0 0 20 20" fill="none" xmlns="http://www.w3.org/2000/svg">
<path d="M15.5451 14.6625L17.9864 17.1025C18.1002 17.2204 18.1632 17.3783 18.1618 17.5421C18.1603 17.706 18.0946 17.8628 17.9787 17.9786C17.8629 18.0945 17.7061 18.1603 17.5422 18.1617C17.3784 18.1631 17.2205 18.1001 17.1026 17.9863L14.6614 15.545C13.0661 16.9118 11.0034 17.6076 8.90612 17.4864C6.80887 17.3651 4.8401 16.4363 3.41291 14.8948C1.98573 13.3533 1.21108 11.3189 1.25151 9.21854C1.29194 7.11818 2.14431 5.11512 3.62976 3.62967C5.11521 2.14422 7.11827 1.29185 9.21863 1.25142C11.319 1.21098 13.3534 1.98564 14.8949 3.41282C16.4364 4.84001 17.3652 6.80878 17.4865 8.90603C17.6077 11.0033 16.9119 13.066 15.5451 14.6613V14.6625ZM9.3751 16.25C11.1985 16.25 12.9471 15.5257 14.2365 14.2364C15.5258 12.9471 16.2501 11.1984 16.2501 9.37501C16.2501 7.55165 15.5258 5.80296 14.2365 4.51365C12.9471 3.22434 11.1985 2.50001 9.3751 2.50001C7.55174 2.50001 5.80305 3.22434 4.51374 4.51365C3.22443 5.80296 2.5001 7.55165 2.5001 9.37501C2.5001 11.1984 3.22443 12.9471 4.51374 14.2364C5.80305 15.5257 7.55174 16.25 9.3751 16.25V16.25Z" fill="#252525" stroke="#252525"/>
</svg>
