<svg width="16" height="16" viewBox="0 0 16 16" fill="none" xmlns="http://www.w3.org/2000/svg">
<g clip-path="url(#clip0_197_2327)">
<path d="M11.2432 6.44672L9.31317 6.16672L8.44983 4.41672C8.3665 4.24672 8.19317 4.13672 7.99983 4.13672C7.8065 4.13672 7.6365 4.24339 7.54983 4.41672L6.6865 6.16672L4.7565 6.44672C4.56983 6.47339 4.41317 6.60672 4.35317 6.78672C4.29317 6.96672 4.34317 7.16672 4.47983 7.30005L5.8765 8.66005L5.5465 10.5834C5.53093 10.6754 5.54139 10.7699 5.5767 10.8563C5.61201 10.9427 5.67077 11.0175 5.74633 11.0723C5.8219 11.1271 5.91128 11.1596 6.00437 11.1663C6.09746 11.173 6.19056 11.1535 6.27317 11.1101L7.99983 10.2001L9.7265 11.1067C9.79983 11.1467 9.87983 11.1634 9.95983 11.1634C10.0632 11.1634 10.1665 11.1301 10.2532 11.0667C10.4065 10.9534 10.4832 10.7667 10.4532 10.5767L10.1232 8.65338L11.5198 7.29339C11.6565 7.16005 11.7065 6.96339 11.6465 6.78005C11.5865 6.60339 11.4298 6.47339 11.2432 6.44672ZM9.2365 8.12672C9.11983 8.24005 9.06317 8.40672 9.09317 8.57005L9.2965 9.75339L8.23317 9.19339C8.15983 9.15672 8.07983 9.13672 7.99983 9.13672C7.91983 9.13672 7.83983 9.15672 7.7665 9.19339L6.70317 9.75339L6.9065 8.57005C6.93317 8.40672 6.87983 8.24338 6.76317 8.12672L5.90317 7.29005L7.08983 7.11672C7.25317 7.09339 7.39317 6.99005 7.4665 6.84339L7.99983 5.76672L8.52983 6.84339C8.60317 6.99005 8.74317 7.09339 8.9065 7.11672L10.0932 7.29005L9.2365 8.12672Z" fill="#252525"/>
<path d="M7.99967 0.833252C4.04967 0.833252 0.833008 4.04992 0.833008 7.99992C0.833008 11.9533 4.04967 15.1666 7.99967 15.1666C11.9497 15.1666 15.1663 11.9533 15.1663 7.99992C15.1663 4.04992 11.9497 0.833252 7.99967 0.833252ZM7.99967 14.1666C4.59967 14.1666 1.83301 11.3999 1.83301 7.99992C1.83301 4.59992 4.59967 1.83325 7.99967 1.83325C11.3997 1.83325 14.1663 4.59992 14.1663 7.99992C14.1663 11.3999 11.3997 14.1666 7.99967 14.1666Z" fill="#252525"/>
</g>
<defs>
<clipPath id="clip0_197_2327">
<rect width="16" height="16" fill="white"/>
</clipPath>
</defs>
</svg>
