<svg width="16" height="16" viewBox="0 0 16 16" fill="none" xmlns="http://www.w3.org/2000/svg">
<g clip-path="url(#clip0_8_2108)">
<path d="M11.2433 6.44667L9.31333 6.16667L8.45 4.41667C8.36667 4.24667 8.19333 4.13667 8 4.13667C7.80667 4.13667 7.63667 4.24333 7.55 4.41667L6.68667 6.16667L4.75667 6.44667C4.57 6.47333 4.41333 6.60667 4.35333 6.78667C4.29333 6.96667 4.34333 7.16667 4.48 7.3L5.87667 8.66L5.54667 10.5833C5.5311 10.6754 5.54156 10.7699 5.57687 10.8563C5.61218 10.9427 5.67093 11.0175 5.7465 11.0723C5.82207 11.127 5.91144 11.1596 6.00454 11.1662C6.09763 11.1729 6.19073 11.1534 6.27333 11.11L8 10.2L9.72667 11.1067C9.8 11.1467 9.88 11.1633 9.96 11.1633C10.0633 11.1633 10.1667 11.13 10.2533 11.0667C10.4067 10.9533 10.4833 10.7667 10.4533 10.5767L10.1233 8.65333L11.52 7.29333C11.6567 7.16 11.7067 6.96333 11.6467 6.78C11.5867 6.60333 11.43 6.47333 11.2433 6.44667ZM9.23667 8.12666C9.12 8.24 9.06333 8.40666 9.09333 8.57L9.29667 9.75333L8.23333 9.19333C8.16 9.15666 8.08 9.13666 8 9.13666C7.92 9.13666 7.84 9.15666 7.76667 9.19333L6.70333 9.75333L6.90667 8.57C6.93333 8.40666 6.88 8.24333 6.76333 8.12666L5.90333 7.29L7.09 7.11667C7.25333 7.09333 7.39333 6.99 7.46667 6.84333L8 5.76667L8.53 6.84333C8.60333 6.99 8.74333 7.09333 8.90667 7.11667L10.0933 7.29L9.23667 8.12666Z" fill="white"/>
<path d="M7.99999 0.833336C4.04999 0.833336 0.833328 4.05 0.833328 8C0.833328 11.9533 4.04999 15.1667 7.99999 15.1667C11.95 15.1667 15.1667 11.9533 15.1667 8C15.1667 4.05 11.95 0.833336 7.99999 0.833336ZM7.99999 14.1667C4.59999 14.1667 1.83333 11.4 1.83333 8C1.83333 4.6 4.59999 1.83334 7.99999 1.83334C11.4 1.83334 14.1667 4.6 14.1667 8C14.1667 11.4 11.4 14.1667 7.99999 14.1667Z" fill="white"/>
</g>
<defs>
<clipPath id="clip0_8_2108">
<rect width="16" height="16" fill="white"/>
</clipPath>
</defs>
</svg>
