<svg width="15" height="14" viewBox="0 0 15 14" fill="none" xmlns="http://www.w3.org/2000/svg">
<path d="M14.1476 5.70678C14.6622 4.49511 14.5225 3.11324 13.7752 2.0225C13.0277 0.931695 11.7711 0.275502 10.4243 0.272747C9.34028 0.267867 8.30097 0.692942 7.54554 1.45001C6.79012 0.692942 5.7508 0.267877 4.66677 0.272747C3.32004 0.2755 2.06341 0.931695 1.31589 2.0225C0.568558 3.1133 0.428864 4.49517 0.943456 5.70678C0.761863 5.74282 0.632704 5.90011 0.636431 6.08055C0.636431 6.17966 0.676915 6.27476 0.748884 6.34484C0.820853 6.41491 0.918524 6.45421 1.02031 6.45421H1.36191C1.69286 6.91006 2.11928 7.29223 2.61314 7.57541C2.46355 8.61816 2.17182 12.262 5.19259 13.6898C5.29797 13.7395 5.42096 13.7395 5.52646 13.6898C5.62991 13.6419 5.70587 13.5514 5.73375 13.4432C5.73375 13.417 6.30951 11.2008 7.54544 10.4197C8.78137 11.1896 9.34942 13.4095 9.35712 13.4432C9.38501 13.5514 9.46096 13.6419 9.56442 13.6898C9.61557 13.7148 9.67212 13.7277 9.72944 13.7272C9.78791 13.7275 9.84574 13.7147 9.89831 13.6898C12.9152 12.2622 12.6273 8.61813 12.4776 7.57541H12.4777C12.9716 7.29223 13.3981 6.91006 13.729 6.45421H14.0706C14.1724 6.45421 14.27 6.41491 14.342 6.34484C14.414 6.27476 14.4545 6.17966 14.4545 6.08055C14.4582 5.90011 14.329 5.74282 14.1474 5.70678H14.1476ZM4.66677 1.02014C5.67421 1.01714 6.62588 1.47013 7.24237 2.2461C7.31498 2.33732 7.42692 2.39063 7.54554 2.39063C7.66416 2.39063 7.7761 2.33732 7.84871 2.2461C8.4089 1.54471 9.24493 1.10388 10.1542 1.0303C11.0634 0.956717 11.9628 1.25729 12.634 1.85893C13.3052 2.4607 13.6871 3.30862 13.687 4.19693C13.6863 4.71823 13.5545 5.23155 13.3031 5.69191H9.4646V5.13131C9.4646 4.46371 9.09885 3.84679 8.5051 3.51293C7.91122 3.17907 7.17971 3.17907 6.58583 3.51293C5.99208 3.84679 5.62633 4.46371 5.62633 5.13131V5.69191H1.78786C1.24616 4.70749 1.27574 3.51831 1.86587 2.56068C2.456 1.60304 3.51963 1.01803 4.66663 1.02014H4.66677ZM6.39404 5.13144C6.39404 4.73088 6.61354 4.36072 6.96979 4.16041C7.32603 3.9602 7.76505 3.9602 8.1213 4.16041C8.47754 4.36075 8.69705 4.73091 8.69705 5.13144V7.00007C8.69705 7.40063 8.47755 7.77079 8.1213 7.9711C7.76505 8.17131 7.32603 8.17131 6.96979 7.9711C6.61355 7.77076 6.39404 7.4006 6.39404 7.00007V5.13144ZM11.9328 7.00007C11.7489 7.06038 11.6402 7.24483 11.6794 7.42991C11.6794 7.47108 12.4701 11.2045 9.96367 12.7781C9.68737 11.9484 8.98874 10.2553 7.71823 9.63868C7.60964 9.58537 7.48138 9.58537 7.37278 9.63868C6.10227 10.2553 5.40364 11.9484 5.12734 12.7781C2.6286 11.2046 3.40393 7.47091 3.41166 7.42991C3.44212 7.28901 3.38686 7.14373 3.26965 7.05613C3.24073 7.03373 3.20835 7.01609 3.17365 7.00382C2.8733 6.84953 2.59891 6.6517 2.35989 6.41708H5.62639V7.00008C5.62639 7.66767 5.99214 8.28459 6.58589 8.61845C7.17978 8.95219 7.91128 8.95219 8.50516 8.61845C9.09891 8.28459 9.46466 7.66767 9.46466 7.00008V6.43947H12.7312C12.4952 6.6691 12.2262 6.86419 11.9328 7.01872L11.9328 7.00007Z" fill="url(#paint0_linear_11_4517)"/>
<defs>
<linearGradient id="paint0_linear_11_4517" x1="0.636353" y1="0.272705" x2="16.4612" y2="10.6743" gradientUnits="userSpaceOnUse">
<stop stop-color="#AD37E0"/>
<stop offset="1" stop-color="#EE2B3B"/>
</linearGradient>
</defs>
</svg>
