<svg width="34" height="30" viewBox="0 0 34 30" fill="none" xmlns="http://www.w3.org/2000/svg">
<path d="M17.8251 13.8506C17.5142 13.5458 17.0962 13.3751 16.6609 13.3751C16.2255 13.3751 15.8075 13.5458 15.4966 13.8506L10.5071 18.6737C10.3306 18.8194 10.1861 18.9998 10.0826 19.2039C9.979 19.4079 9.91867 19.6311 9.90532 19.8595C9.89196 20.0879 9.92588 20.3166 10.005 20.5314C10.084 20.7461 10.2066 20.9421 10.3649 21.1073C10.5232 21.2725 10.7139 21.4033 10.925 21.4914C11.1362 21.5795 11.3632 21.6232 11.592 21.6195C11.8208 21.6159 12.0463 21.5651 12.2546 21.4703C12.4628 21.3756 12.6493 21.2388 12.8023 21.0687L14.981 18.9565V28.3368C14.981 28.7779 15.1563 29.2009 15.4682 29.5128C15.7801 29.8247 16.2031 29.9999 16.6442 29.9999C17.0853 29.9999 17.5084 29.8247 17.8203 29.5128C18.1322 29.2009 18.3074 28.7779 18.3074 28.3368V19.0396L20.4529 21.2018C20.6075 21.3577 20.7914 21.4814 20.9941 21.5658C21.1968 21.6503 21.4142 21.6937 21.6337 21.6937C21.8533 21.6937 22.0707 21.6503 22.2734 21.5658C22.476 21.4814 22.66 21.3577 22.8146 21.2018C22.9705 21.0472 23.0942 20.8632 23.1786 20.6605C23.2631 20.4579 23.3066 20.2405 23.3066 20.0209C23.3066 19.8014 23.2631 19.584 23.1786 19.3813C23.0942 19.1786 22.9705 18.9947 22.8146 18.8401L17.8251 13.8506Z" fill="url(#paint0_linear_5_590)"/>
<path d="M26.0723 6.71519C25.3936 4.75439 24.1207 3.05391 22.4305 1.85035C20.7403 0.646781 18.717 0 16.6421 0C14.5672 0 12.5439 0.646781 10.8537 1.85035C9.16353 3.05391 7.89056 4.75439 7.21192 6.71519C5.71764 6.91532 4.30589 7.51792 3.12767 8.45851C1.94945 9.3991 1.04909 10.6423 0.522916 12.0551C-0.00325988 13.4679 -0.135461 14.9972 0.140455 16.4794C0.416371 17.9615 1.09002 19.3408 2.08935 20.4696C2.21006 20.6822 2.37617 20.8656 2.57584 21.0067C2.77551 21.1478 3.00384 21.2432 3.24457 21.286C3.48529 21.3288 3.73249 21.318 3.96857 21.2543C4.20464 21.1907 4.42378 21.0758 4.61038 20.9178C4.79698 20.7598 4.94646 20.5626 5.04816 20.3403C5.14986 20.118 5.20128 19.8759 5.19877 19.6314C5.19626 19.3869 5.13988 19.146 5.03364 18.9258C4.9274 18.7056 4.77391 18.5115 4.58411 18.3574C3.94065 17.638 3.51965 16.7474 3.37213 15.7936C3.22461 14.8398 3.3569 13.8636 3.75298 12.9835C4.14905 12.1033 4.7919 11.3569 5.60362 10.8347C6.41534 10.3126 7.36108 10.037 8.32624 10.0415H8.49256C8.88165 10.0494 9.26118 9.92053 9.56507 9.67741C9.86896 9.4343 10.078 9.09232 10.1557 8.71099C10.4611 7.2071 11.277 5.85503 12.4652 4.88386C13.6534 3.9127 15.1408 3.38217 16.6754 3.38217C18.2099 3.38217 19.6973 3.9127 20.8855 4.88386C22.0737 5.85503 22.8896 7.2071 23.195 8.71099C23.2728 9.09232 23.4818 9.4343 23.7857 9.67741C24.0896 9.92053 24.4691 10.0494 24.8582 10.0415H24.958C25.9231 10.037 26.8689 10.3126 27.6806 10.8347C28.4923 11.3569 29.1352 12.1033 29.5312 12.9835C29.9273 13.8636 30.0596 14.8398 29.9121 15.7936C29.7645 16.7474 29.3436 17.638 28.7001 18.3574C28.5536 18.5217 28.4412 18.7134 28.3693 18.9215C28.2975 19.1296 28.2676 19.3498 28.2816 19.5695C28.2955 19.7892 28.3529 20.0039 28.4504 20.2013C28.548 20.3986 28.6837 20.5746 28.8498 20.7191C29.153 20.9865 29.5432 21.1343 29.9475 21.1349C30.1836 21.1346 30.417 21.084 30.6321 20.9865C30.8471 20.889 31.039 20.7468 31.1949 20.5694C32.2219 19.4425 32.9194 18.0549 33.211 16.5584C33.5026 15.0619 33.3772 13.5139 32.8484 12.0839C32.3197 10.6538 31.4079 9.39661 30.2128 8.44976C29.0178 7.50292 27.5854 6.90286 26.0723 6.71519Z" fill="url(#paint1_linear_5_590)"/>
<defs>
<linearGradient id="paint0_linear_5_590" x1="9.90248" y1="13.3751" x2="27.2627" y2="22.3332" gradientUnits="userSpaceOnUse">
<stop stop-color="#AD37E0"/>
<stop offset="1" stop-color="#EE2B3B"/>
</linearGradient>
<linearGradient id="paint1_linear_5_590" x1="0" y1="0" x2="27.3055" y2="27.3589" gradientUnits="userSpaceOnUse">
<stop stop-color="#AD37E0"/>
<stop offset="1" stop-color="#EE2B3B"/>
</linearGradient>
</defs>
</svg>
