<svg width="22" height="20" viewBox="0 0 22 20" fill="none" xmlns="http://www.w3.org/2000/svg">
<path d="M14.3239 20H7.66208C6.89887 20.0033 6.14835 19.8066 5.48671 19.4299C4.82506 19.0532 4.27585 18.5099 3.8948 17.8551L0.579587 12.1417C0.199893 11.4906 0 10.7519 0 9.99999C0 9.24808 0.199893 8.50942 0.579587 7.85825L3.91363 2.14487C4.29309 1.49284 4.83934 0.951303 5.49739 0.57477C6.15544 0.198238 6.90206 4.87414e-06 7.66208 2.68284e-05H14.3239C15.087 -0.00264504 15.8372 0.194299 16.4988 0.570932C17.1603 0.947565 17.7096 1.49052 18.0912 2.14487L21.4252 7.85825C21.8019 8.51044 22 9.24871 22 9.99999C22 10.7513 21.8019 11.4895 21.4252 12.1417L18.0912 17.8551C17.7096 18.5095 17.1603 19.0524 16.4988 19.4291C15.8372 19.8057 15.087 20.0026 14.3239 20V20ZM7.66208 2.52411C7.34914 2.52468 7.04183 2.60651 6.7708 2.76141C6.49977 2.91632 6.27451 3.13889 6.11749 3.40692L2.78345 9.12029C2.62749 9.38776 2.54539 9.69115 2.54539 9.99999C2.54539 10.3088 2.62749 10.6122 2.78345 10.8797L6.11122 16.5931C6.26823 16.8611 6.49349 17.0837 6.76452 17.2386C7.03555 17.3935 7.34286 17.4753 7.6558 17.4759H14.3239C14.6362 17.4761 14.9429 17.3946 15.2131 17.2395C15.4832 17.0845 15.7072 16.8615 15.8622 16.5931L19.1962 10.8797C19.3504 10.6116 19.4314 10.3085 19.4314 9.99999C19.4314 9.69152 19.3504 9.38836 19.1962 9.12029L15.8622 3.40692C15.7072 3.13853 15.4832 2.9155 15.2131 2.76046C14.9429 2.60542 14.6362 2.52388 14.3239 2.52411H7.66208Z" fill="white"/>
<path d="M10.9898 13.9073C13.1676 13.9073 14.9329 12.1594 14.9329 10.0031C14.9329 7.84684 13.1676 6.09885 10.9898 6.09885C8.81213 6.09885 7.04675 7.84684 7.04675 10.0031C7.04675 12.1594 8.81213 13.9073 10.9898 13.9073Z" fill="white"/>
</svg>
