<svg width="11" height="15" viewBox="0 0 11 15" fill="none" xmlns="http://www.w3.org/2000/svg">
<path d="M5.95 0.95259C5.65073 0.93248 5.35045 0.93248 5.05117 0.95259C4.01823 1.02072 3.02752 1.3884 2.20023 2.01066C1.37294 2.63292 0.744914 3.48278 0.392972 4.45631C0.00214945 5.46639 -0.085776 6.56849 0.139953 7.62776C0.365682 8.68704 0.895277 9.65754 1.66394 10.4205L5.1686 13.9252C5.21211 13.9687 5.26377 14.0032 5.32063 14.0268C5.3775 14.0504 5.43845 14.0625 5.5 14.0625C5.56156 14.0625 5.62251 14.0504 5.67937 14.0268C5.73624 14.0032 5.7879 13.9687 5.83141 13.9252L9.33607 10.4205C10.1047 9.65754 10.6343 8.68704 10.8601 7.62776C11.0858 6.56849 10.9979 5.46639 10.607 4.45631C10.2552 3.48294 9.62735 2.63318 8.80028 2.01094C7.97321 1.38869 6.98275 1.02092 5.95 0.95259ZM8.67344 9.75768L5.5 12.9309L2.32657 9.75768C1.6864 9.12127 1.24559 8.31208 1.05807 7.42909C0.870543 6.54609 0.944436 5.62759 1.27071 4.78593C1.55434 3.97756 2.07071 3.27113 2.75487 2.75552C3.43903 2.23992 4.26039 1.93818 5.11563 1.88826C5.24219 1.87912 5.37067 1.875 5.5 1.875C5.62933 1.875 5.75781 1.87912 5.88569 1.88826C6.74073 1.93837 7.56186 2.2402 8.24579 2.7558C8.92972 3.27139 9.44591 3.97772 9.72944 4.78593C10.0557 5.6276 10.1296 6.54611 9.94202 7.42911C9.75447 8.3121 9.31363 9.12129 8.67344 9.75768Z" fill="url(#paint0_linear_0_2202)"/>
<path d="M6.90625 6.09375H5.96875V5.15625C5.96875 5.03193 5.91936 4.9127 5.83146 4.82479C5.74355 4.73689 5.62432 4.6875 5.5 4.6875C5.37568 4.6875 5.25645 4.73689 5.16854 4.82479C5.08064 4.9127 5.03125 5.03193 5.03125 5.15625V6.09375H4.09375C3.96943 6.09375 3.8502 6.14314 3.76229 6.23104C3.67439 6.31895 3.625 6.43818 3.625 6.5625C3.625 6.68682 3.67439 6.80605 3.76229 6.89396C3.8502 6.98186 3.96943 7.03125 4.09375 7.03125H5.03125V7.96875C5.03125 8.09307 5.08064 8.2123 5.16854 8.30021C5.25645 8.38811 5.37568 8.4375 5.5 8.4375C5.62432 8.4375 5.74355 8.38811 5.83146 8.30021C5.91936 8.2123 5.96875 8.09307 5.96875 7.96875V7.03125H6.90625C7.03057 7.03125 7.1498 6.98186 7.23771 6.89396C7.32561 6.80605 7.375 6.68682 7.375 6.5625C7.375 6.43818 7.32561 6.31895 7.23771 6.23104C7.1498 6.14314 7.03057 6.09375 6.90625 6.09375Z" fill="url(#paint1_linear_0_2202)"/>
<path d="M5.5 2.8125C4.75832 2.8125 4.0333 3.03243 3.41661 3.44449C2.79993 3.85654 2.31928 4.44221 2.03545 5.12744C1.75162 5.81266 1.67736 6.56666 1.82206 7.29409C1.96675 8.02152 2.3239 8.6897 2.84835 9.21415C3.3728 9.7386 4.04098 10.0958 4.76841 10.2404C5.49584 10.3851 6.24984 10.3109 6.93506 10.027C7.62029 9.74322 8.20596 9.26257 8.61801 8.64589C9.03007 8.0292 9.25 7.30418 9.25 6.5625C9.24886 5.56829 8.85341 4.61512 8.15039 3.91211C7.44738 3.2091 6.49421 2.81364 5.5 2.8125ZM5.5 9.375C4.94374 9.375 4.39997 9.21005 3.93746 8.90101C3.47495 8.59197 3.11446 8.15271 2.90159 7.6388C2.68872 7.12488 2.63302 6.55938 2.74154 6.01381C2.85006 5.46824 3.11793 4.9671 3.51126 4.57376C3.9046 4.18043 4.40574 3.91256 4.95131 3.80404C5.49688 3.69552 6.06238 3.75122 6.5763 3.96409C7.09022 4.17696 7.52947 4.53745 7.83851 4.99996C8.14755 5.46247 8.3125 6.00624 8.3125 6.5625C8.31168 7.30817 8.0151 8.02306 7.48783 8.55033C6.96057 9.0776 6.24567 9.37418 5.5 9.375Z" fill="url(#paint2_linear_0_2202)"/>
<defs>
<linearGradient id="paint0_linear_0_2202" x1="0.0176086" y1="0.937508" x2="14.0022" y2="8.41455" gradientUnits="userSpaceOnUse">
<stop stop-color="#AD37E0"/>
<stop offset="1" stop-color="#EE2B3B"/>
</linearGradient>
<linearGradient id="paint1_linear_0_2202" x1="3.625" y1="4.6875" x2="7.98794" y2="7.47978" gradientUnits="userSpaceOnUse">
<stop stop-color="#AD37E0"/>
<stop offset="1" stop-color="#EE2B3B"/>
</linearGradient>
<linearGradient id="paint2_linear_0_2202" x1="1.75" y1="2.8125" x2="10.4759" y2="8.39706" gradientUnits="userSpaceOnUse">
<stop stop-color="#AD37E0"/>
<stop offset="1" stop-color="#EE2B3B"/>
</linearGradient>
</defs>
</svg>
