<svg width="22" height="22" viewBox="0 0 22 22" fill="none" xmlns="http://www.w3.org/2000/svg">
<path d="M20.1223 9.13932H13.1141V1.8776C13.1141 0.837755 12.2719 -0.00443268 11.232 -0.00443268C10.1922 -0.00443268 9.35 0.837755 9.35 1.8776V9.13932H1.87344C0.842187 9.13932 0 9.9815 0 11.0213C0 12.0612 0.842187 12.9034 1.88203 12.9034H9.35859V20.1221C9.35859 21.162 10.2008 22.0042 11.2406 22.0042C12.2805 22.0042 13.1227 21.162 13.1227 20.1221V12.9034H20.1309C21.1707 12.9034 22.0129 12.0612 22.0129 11.0213C22 9.9815 21.1621 9.13932 20.1223 9.13932Z" fill="url(#paint0_linear_6_16)"/>
<defs>
<linearGradient id="paint0_linear_6_16" x1="0" y1="-0.00443268" x2="25.608" y2="16.3879" gradientUnits="userSpaceOnUse">
<stop stop-color="#AD37E0"/>
<stop offset="1" stop-color="#EE2B3B"/>
</linearGradient>
</defs>
</svg>
