<svg width="26" height="26" viewBox="0 0 26 26" fill="none" xmlns="http://www.w3.org/2000/svg">
<path d="M13.8875 0.8625C13.7713 0.745339 13.633 0.652347 13.4807 0.588886C13.3284 0.525425 13.165 0.492752 13 0.492752C12.835 0.492752 12.6716 0.525425 12.5193 0.588886C12.367 0.652347 12.2287 0.745339 12.1125 0.8625L0.8625 12.1125C0.745339 12.2287 0.652347 12.367 0.588886 12.5193C0.525425 12.6716 0.492752 12.835 0.492752 13C0.492752 13.165 0.525425 13.3284 0.588886 13.4807C0.652347 13.633 0.745339 13.7713 0.8625 13.8875C0.9793 14.0034 1.11782 14.095 1.27012 14.1572C1.42241 14.2194 1.58549 14.251 1.75 14.25H3V23C3 23.663 3.26339 24.2989 3.73223 24.7678C4.20107 25.2366 4.83696 25.5 5.5 25.5H20.5C21.163 25.5 21.7989 25.2366 22.2678 24.7678C22.7366 24.2989 23 23.663 23 23V14.25H24.25C24.5815 14.25 24.8995 14.1183 25.1339 13.8839C25.3683 13.6495 25.5 13.3315 25.5 13C25.501 12.8355 25.4694 12.6724 25.4072 12.5201C25.345 12.3678 25.2534 12.2293 25.1375 12.1125L13.8875 0.8625ZM5.5 23V11.0125L13 3.5125L20.5 11.0125V23H5.5Z" fill="white" stroke="white" stroke-width="0.3"/>
</svg>
