<svg width="18" height="20" viewBox="0 0 18 20" fill="none" xmlns="http://www.w3.org/2000/svg">
<path d="M16.9 9C16.3 9 15.9 9.4 15.9 10C15.9 13.9 12.8 17 8.9 17H8.2C8 17 7.9 17 7.7 16.9C7.5 16.9 7.4 16.8 7.2 16.8C7.1 16.8 7 16.7 6.9 16.7C6.2 16.5 5.5 16.1 4.9 15.7C4.8 15.6 4.7 15.6 4.7 15.5C4.6 15.4 4.5 15.3 4.4 15.3C4.2 15.2 4 15 3.9 14.9L3.7 14.7L5.5 14.4C6 14.3 6.4 13.8 6.3 13.2C6.2 12.7 5.7 12.3 5.1 12.4L1.8 13L1 13.2C0.700001 13.2 0.500001 13.4 0.400001 13.6C0.300001 13.8 0.200001 14.1 0.200001 14.3L1 18.5C1.1 19 1.5 19.3 2 19.3H2.2C2.7 19.2 3.1 18.7 3 18.1L2.7 16.4C2.9 16.6 3.2 16.8 3.4 17H3.5C3.6 17.1 3.7 17.2 3.8 17.2C4 17.4 4.2 17.5 4.5 17.6C4.7 18 5 18.1 5.3 18.3H5.4C5.5 18.4 5.7 18.4 5.9 18.5C6.3 18.6 6.7 18.7 7 18.8C7.2 18.8 7.4 18.9 7.6 18.9H8.8C13.8 18.9 17.8 14.9 17.8 9.9C17.9 9.4 17.4 9 16.9 9ZM1 11C1.6 11 2 10.6 2 10C2 6.1 5.1 3 9 3H9.7C9.9 3 10 3 10.2 3.1C10.4 3.1 10.5 3.2 10.7 3.2C10.8 3.2 10.9 3.3 11 3.3C11.7 3.5 12.4 3.8 13 4.3C13.1 4.4 13.2 4.4 13.3 4.5C13.4 4.6 13.5 4.6 13.6 4.7C13.7 4.8 13.8 5 14 5.1L14.2 5.3L12.4 5.6C11.9 5.7 11.5 6.2 11.6 6.8C11.7 7.3 12.1 7.6 12.6 7.6H12.8L17 6.8C17.5 6.7 17.9 6.2 17.8 5.6L17 1.5C16.9 0.999996 16.4 0.599996 15.8 0.699996C15.3 0.799996 14.9 1.3 15 1.9L15.3 3.6C15.1 3.4 14.8 3.1 14.6 3H14.5C14.4 2.9 14.3 2.8 14.2 2.8C14 2.6 13.8 2.5 13.5 2.3C13.2 2.1 12.9 2 12.6 1.8H12.5C12.4 1.7 12.2 1.7 12 1.6C11.6 1.5 11.2 1.4 10.9 1.3C10.7 1.3 10.5 1.2 10.3 1.2H9.1C4.1 1.2 0.100001 5.2 0.100001 10.2C6.48201e-07 10.6 0.400001 11 1 11Z" fill="#252525" fill-opacity="0.5"/>
</svg>
