<svg width="23" height="25" viewBox="0 0 23 25" fill="none" xmlns="http://www.w3.org/2000/svg">
<path d="M18.75 2.83332H17.5417V1.62499C17.5417 1.30452 17.4144 0.997176 17.1878 0.770569C16.9611 0.543963 16.6538 0.416656 16.3333 0.416656C16.0129 0.416656 15.7055 0.543963 15.4789 0.770569C15.2523 0.997176 15.125 1.30452 15.125 1.62499V2.83332H7.875V1.62499C7.875 1.30452 7.74769 0.997176 7.52109 0.770569C7.29448 0.543963 6.98714 0.416656 6.66667 0.416656C6.3462 0.416656 6.03885 0.543963 5.81225 0.770569C5.58564 0.997176 5.45833 1.30452 5.45833 1.62499V2.83332H4.25C3.28859 2.83332 2.36656 3.21524 1.68674 3.89506C1.00692 4.57488 0.625 5.49691 0.625 6.45832V20.9583C0.625 21.9197 1.00692 22.8418 1.68674 23.5216C2.36656 24.2014 3.28859 24.5833 4.25 24.5833H18.75C19.7114 24.5833 20.6334 24.2014 21.3133 23.5216C21.9931 22.8418 22.375 21.9197 22.375 20.9583V6.45832C22.375 5.49691 21.9931 4.57488 21.3133 3.89506C20.6334 3.21524 19.7114 2.83332 18.75 2.83332ZM4.25 5.24999H5.45833V6.45832C5.45833 6.77879 5.58564 7.08614 5.81225 7.31274C6.03885 7.53935 6.3462 7.66666 6.66667 7.66666C6.98714 7.66666 7.29448 7.53935 7.52109 7.31274C7.74769 7.08614 7.875 6.77879 7.875 6.45832V5.24999H15.125V6.45832C15.125 6.77879 15.2523 7.08614 15.4789 7.31274C15.7055 7.53935 16.0129 7.66666 16.3333 7.66666C16.6538 7.66666 16.9611 7.53935 17.1878 7.31274C17.4144 7.08614 17.5417 6.77879 17.5417 6.45832V5.24999H18.75C19.0705 5.24999 19.3778 5.3773 19.6044 5.6039C19.831 5.83051 19.9583 6.13785 19.9583 6.45832V11.2917H3.04167V6.45832C3.04167 6.13785 3.16897 5.83051 3.39558 5.6039C3.62219 5.3773 3.92953 5.24999 4.25 5.24999ZM18.75 22.1667H4.25C3.92953 22.1667 3.62219 22.0394 3.39558 21.8127C3.16897 21.5861 3.04167 21.2788 3.04167 20.9583V13.7083H19.9583V20.9583C19.9583 21.2788 19.831 21.5861 19.6044 21.8127C19.3778 22.0394 19.0705 22.1667 18.75 22.1667Z" fill="white"/>
<path d="M6.66667 18.5417C7.33401 18.5417 7.875 18.0007 7.875 17.3333C7.875 16.666 7.33401 16.125 6.66667 16.125C5.99933 16.125 5.45834 16.666 5.45834 17.3333C5.45834 18.0007 5.99933 18.5417 6.66667 18.5417Z" fill="white"/>
<path d="M16.3333 16.125H11.5C11.1795 16.125 10.8722 16.2523 10.6456 16.4789C10.419 16.7055 10.2917 17.0129 10.2917 17.3333C10.2917 17.6538 10.419 17.9611 10.6456 18.1878C10.8722 18.4144 11.1795 18.5417 11.5 18.5417H16.3333C16.6538 18.5417 16.9612 18.4144 17.1878 18.1878C17.4144 17.9611 17.5417 17.6538 17.5417 17.3333C17.5417 17.0129 17.4144 16.7055 17.1878 16.4789C16.9612 16.2523 16.6538 16.125 16.3333 16.125Z" fill="white"/>
</svg>
