<svg width="10" height="10" viewBox="0 0 10 10" fill="none" xmlns="http://www.w3.org/2000/svg">
<path d="M7.10014 5.45996C7.09108 5.45596 7.08253 5.45146 7.07348 5.44796C7.00406 5.41698 6.93565 5.3845 6.86472 5.35651C7.35838 4.97132 7.71887 4.44281 7.896 3.84453C8.07314 3.24626 8.0581 2.60801 7.85297 2.01863C7.64785 1.42924 7.26286 0.918065 6.75159 0.556253C6.24032 0.194441 5.62822 0 5.0005 0C4.37279 0 3.76068 0.194441 3.24942 0.556253C2.73815 0.918065 2.35316 1.42924 2.14803 2.01863C1.94291 2.60801 1.92787 3.24626 2.105 3.84453C2.28214 4.44281 2.64263 4.97132 3.13629 5.35651C3.06587 5.3845 2.99695 5.41698 2.92753 5.44796L2.90037 5.45996C2.11098 5.81771 1.4288 6.37326 0.920828 7.07207C0.412852 7.77088 0.0965368 8.58892 0.00293979 9.44587C-0.00419451 9.51117 0.00168712 9.57722 0.0202489 9.64026C0.0388107 9.7033 0.0696892 9.76209 0.111121 9.81328C0.152553 9.86446 0.203727 9.90704 0.261722 9.93857C0.319717 9.97011 0.383396 9.98999 0.449124 9.99708C0.514852 10.0042 0.581342 9.99832 0.644797 9.97988C0.708252 9.96144 0.767429 9.93077 0.818951 9.8896C0.870472 9.84844 0.913328 9.7976 0.945073 9.73999C0.976817 9.68237 0.996827 9.61911 1.00396 9.55381C1.07231 8.92737 1.28975 8.32609 1.63832 7.79966C1.98688 7.27324 2.45656 6.83679 3.00852 6.5264L4.64436 8.15105C4.73869 8.24473 4.86662 8.29736 5 8.29736C5.13339 8.29736 5.26131 8.24473 5.35564 8.15105L6.99148 6.5264C7.54363 6.83667 8.01351 7.27307 8.36225 7.7995C8.71099 8.32593 8.92859 8.92728 8.99705 9.55381C9.01042 9.6761 9.06872 9.78919 9.16079 9.87144C9.25286 9.95369 9.37223 9.99931 9.49605 9.99958C9.51453 9.99954 9.533 9.99854 9.55138 9.99658C9.68398 9.98225 9.80543 9.91618 9.889 9.8129C9.97258 9.70963 10.0115 9.57761 9.99706 9.44587C9.90347 8.58892 9.58715 7.77088 9.07917 7.07207C8.5712 6.37326 7.88903 5.81771 7.09963 5.45996H7.10014ZM3.00902 2.80035C3.05632 2.30818 3.28657 1.85119 3.65481 1.51862C4.02305 1.18605 4.50284 1.00177 5.0005 1.00177C5.49817 1.00177 5.97796 1.18605 6.3462 1.51862C6.71444 1.85119 6.94469 2.30818 6.99198 2.80035H3.00902ZM5.0005 7.0911L4.02614 6.12311C4.66547 5.96103 5.33554 5.96103 5.97487 6.12311L5.0005 7.0911ZM5.0005 5.0022C4.60888 5.00155 4.22594 4.88747 3.89858 4.67391C3.57122 4.46035 3.31366 4.15659 3.15742 3.79983H6.84359C6.68735 4.15659 6.42978 4.46035 6.10243 4.67391C5.77507 4.88747 5.39213 5.00155 5.0005 5.0022Z" fill="white"/>
</svg>
