<svg width="21" height="20" viewBox="0 0 21 20" fill="none" xmlns="http://www.w3.org/2000/svg">
<path d="M19.494 12.5954L18.5092 11.6107L18.5091 11.6106L18.509 11.6104L17.0328 10.1344L17.0318 10.133L17.0304 10.132L15.5557 8.65742L15.5546 8.65568L15.5528 8.65453L14.0766 7.1784C13.9243 7.02767 13.7291 6.9278 13.5177 6.8925C13.3064 6.8572 13.0893 6.8882 12.8963 6.98124L10.1399 4.22521C9.85246 3.93612 9.5108 3.70657 9.1345 3.5497C8.7582 3.39283 8.35466 3.31172 7.94697 3.31101C7.91666 2.67055 7.70976 2.05096 7.34917 1.52079C6.98857 0.990628 6.48834 0.570554 5.90381 0.30705C5.31929 0.0435453 4.67326 -0.0531164 4.0372 0.0277595C3.40115 0.108635 2.79987 0.363896 2.29989 0.765298C2.26171 0.795914 2.23041 0.834232 2.20803 0.877753C2.18565 0.921275 2.17269 0.969024 2.16999 1.01789C2.1673 1.06675 2.17493 1.11564 2.19239 1.16136C2.20985 1.20707 2.23675 1.2486 2.27133 1.28323L3.26706 2.2793C3.32419 2.33614 3.3992 2.37148 3.47939 2.37935C3.55959 2.38722 3.64004 2.36713 3.70712 2.32249C3.97537 2.14558 4.29652 2.06681 4.61618 2.09953C4.93584 2.13226 5.23437 2.27445 5.46121 2.50204C5.67831 2.7179 5.81741 2.99984 5.85661 3.30347C5.89581 3.60709 5.83287 3.91512 5.67771 4.17903C5.33153 4.19918 5.00542 4.34812 4.76351 4.59656C4.52159 4.845 4.38138 5.17496 4.37044 5.52155L4.2526 5.63003C3.98526 5.80691 3.66501 5.88598 3.34606 5.85385C3.02712 5.82172 2.72907 5.68036 2.50238 5.45371C2.27569 5.22707 2.13428 4.92905 2.10209 4.61011C2.0699 4.29117 2.14891 3.9709 2.32573 3.70353C2.37065 3.63657 2.39094 3.55609 2.38313 3.47583C2.37531 3.39558 2.33989 3.32052 2.2829 3.26348L1.28715 2.2674C1.25335 2.23172 1.21197 2.20409 1.16606 2.18655C1.12014 2.16902 1.07087 2.16202 1.02189 2.16609C0.973079 2.16867 0.925361 2.18155 0.881873 2.20388C0.838385 2.2262 0.800112 2.25747 0.769564 2.29564C0.366591 2.79437 0.109958 3.39516 0.0282449 4.03112C-0.0534687 4.66707 0.0429438 5.31323 0.306746 5.89763C0.570549 6.48204 0.991386 6.98174 1.5224 7.34111C2.05341 7.70048 2.67374 7.90541 3.31433 7.93307C3.31423 8.34238 3.39496 8.74769 3.55188 9.12573C3.70881 9.50377 3.93885 9.84709 4.2288 10.136L6.98509 12.8923C6.89195 13.0853 6.86087 13.3025 6.89612 13.5139C6.93138 13.7253 7.03124 13.9206 7.18199 14.073L12.5993 19.4901C12.761 19.6517 12.9529 19.78 13.1642 19.8675C13.3754 19.955 13.6018 20 13.8304 20C14.059 20 14.2854 19.955 14.4967 19.8675C14.7079 19.78 14.8998 19.6517 15.0615 19.4901C15.2231 19.3284 15.3514 19.1365 15.4389 18.9253C15.5264 18.714 15.5714 18.4876 15.5714 18.259C15.5714 18.0304 15.5264 17.804 15.4389 17.5928C15.3514 17.3815 15.2231 17.1896 15.0615 17.0279L14.077 16.0434L14.0766 16.0427L14.076 16.0423L12.5994 14.5655L12.5993 14.5655L12.5993 14.5654L11.1224 13.0884L11.1221 13.0878L11.1215 13.0875L9.64479 11.6106C9.49223 11.4598 9.29669 11.3599 9.08506 11.3248C8.87344 11.2896 8.65612 11.3209 8.463 11.4143L5.70266 8.65397C5.507 8.45768 5.39713 8.19183 5.39713 7.91467C5.39713 7.63751 5.507 7.37166 5.70266 7.17537L5.93957 6.93846C6.24224 6.89868 6.52333 6.76015 6.73924 6.54434C6.95515 6.32852 7.09382 6.0475 7.13374 5.74485L7.17926 5.69911C7.37556 5.50344 7.64141 5.39357 7.91857 5.39357C8.19572 5.39357 8.46158 5.50344 8.65787 5.69911L11.4182 8.4591C11.3247 8.65215 11.2934 8.86943 11.3286 9.08102C11.3637 9.29261 11.4636 9.48809 11.6145 9.64056L13.0911 11.1171L13.0918 11.1181L13.0928 11.1188L14.5684 12.5944L14.5691 12.5954L14.5701 12.5961L17.0319 15.0579C17.1935 15.2201 17.3854 15.3488 17.5968 15.4367C17.8082 15.5246 18.0348 15.57 18.2638 15.5702C18.4927 15.5704 18.7194 15.5254 18.931 15.4379C19.1425 15.3504 19.3347 15.222 19.4966 15.0601C19.6584 14.8982 19.7868 14.706 19.8743 14.4945C19.9618 14.2829 20.0067 14.0562 20.0064 13.8273C20.0062 13.5983 19.9608 13.3717 19.8729 13.1603C19.785 12.949 19.6562 12.757 19.494 12.5954L19.494 12.5954ZM1.51704 6.43942C1.07958 6.00297 0.799979 5.43323 0.722385 4.82017C0.644791 4.20711 0.773629 3.58567 1.08855 3.05399L1.60274 3.56853C1.40799 3.97231 1.34899 4.42823 1.43454 4.86829C1.5201 5.30835 1.74562 5.70895 2.07748 6.01035C2.40934 6.31175 2.82974 6.49779 3.27598 6.54071C3.72222 6.58364 4.17037 6.48115 4.5536 6.24854C4.67382 6.4599 4.84727 6.63611 5.0567 6.75967C4.64362 7.04804 4.15839 7.21565 3.6554 7.24372C3.26214 7.27087 2.86764 7.21309 2.49868 7.07431C2.12972 6.93554 1.79493 6.71901 1.51704 6.43942ZM14.569 17.5204C14.6661 17.6173 14.7431 17.7325 14.7956 17.8592C14.8481 17.986 14.8751 18.1218 14.8751 18.259C14.8751 18.3962 14.8481 18.532 14.7956 18.6588C14.7431 18.7855 14.6661 18.9006 14.569 18.9976C14.3702 19.1878 14.1056 19.294 13.8304 19.294C13.5552 19.294 13.2906 19.1878 13.0918 18.9976L12.3531 18.259L13.8303 16.7815L14.569 17.5204ZM13.3379 16.2891L11.8607 17.7666L10.8758 16.7818L12.3532 15.3041L13.3379 16.2891ZM11.8607 14.8117L10.3833 16.2894L9.39826 15.3044L10.8757 13.8266L11.8607 14.8117ZM8.65924 12.103C8.72466 12.0377 8.81334 12.001 8.90579 12.001C8.99824 12.001 9.08692 12.0377 9.15234 12.103L10.3834 13.3342L8.90579 14.812L7.67438 13.5806C7.60952 13.5156 7.57296 13.4276 7.57266 13.3358C7.57235 13.244 7.60833 13.1558 7.67277 13.0903L7.67438 13.0893L7.67706 13.0852L8.65924 12.103ZM7.92062 11.8568L7.42752 12.3499L4.72124 9.64359C4.49372 9.41385 4.31481 9.14063 4.1952 8.84024C4.07559 8.53984 4.01773 8.21843 4.02507 7.89518C4.26199 7.86239 4.49478 7.80461 4.71954 7.72281C4.68896 7.98173 4.7172 8.24421 4.80217 8.49069C4.88713 8.73718 5.02663 8.96131 5.21027 9.14639L7.92062 11.8568ZM5.75911 6.2602C5.62136 6.2602 5.48671 6.21935 5.37217 6.14282C5.25764 6.06629 5.16837 5.95752 5.11566 5.83026C5.06294 5.70299 5.04915 5.56296 5.07603 5.42786C5.1029 5.29275 5.16923 5.16865 5.26663 5.07125C5.36404 4.97385 5.48814 4.90752 5.62324 4.88064C5.75834 4.85377 5.89838 4.86756 6.02564 4.92028C6.1529 4.97299 6.26168 5.06226 6.33821 5.17679C6.41473 5.29133 6.45558 5.42598 6.45558 5.56373C6.4554 5.74839 6.38196 5.92543 6.25139 6.056C6.12081 6.18658 5.94377 6.26001 5.75911 6.2602ZM6.92395 4.80405C6.7888 4.59981 6.60233 4.4347 6.38323 4.32527C6.55563 3.93502 6.60431 3.50133 6.52272 3.08257C6.44113 2.66382 6.23318 2.28013 5.92687 1.98316C5.62057 1.68619 5.23063 1.49022 4.80955 1.42162C4.38847 1.35302 3.95649 1.4151 3.57177 1.59949L3.05758 1.08496C3.58925 0.769885 4.21074 0.640927 4.82388 0.718463C5.43702 0.795999 6.00684 1.07561 6.44335 1.51312C6.86343 1.93901 7.13659 2.48788 7.22304 3.07981C7.30948 3.67174 7.2047 4.27581 6.92395 4.80405ZM9.15033 5.20665C8.96554 5.02304 8.74169 4.88351 8.49546 4.79846C8.24923 4.71342 7.98698 4.68506 7.72827 4.7155C7.80962 4.49078 7.86709 4.25812 7.8997 4.02137C8.22287 4.01405 8.54419 4.07193 8.84449 4.19156C9.14479 4.31118 9.4179 4.4901 9.64751 4.71762L12.354 7.42376L11.8609 7.91686L9.15033 5.20665ZM12.1069 9.1481C12.0746 9.11577 12.0489 9.07739 12.0314 9.03514C12.0139 8.9929 12.0049 8.94762 12.0049 8.90189C12.0049 8.85617 12.0139 8.81089 12.0314 8.76864C12.0489 8.7264 12.0746 8.68802 12.1069 8.65569L13.0901 7.6725L13.0931 7.6705L13.0938 7.66948C13.1592 7.60497 13.2475 7.56892 13.3393 7.56918C13.4312 7.56944 13.5192 7.606 13.5842 7.67088L14.8156 8.90224L13.3382 10.3794L12.1069 9.1481ZM13.8306 10.8718L15.3081 9.39458L16.2929 10.3794L14.8155 11.8567L13.8306 10.8718ZM15.3079 12.3491L16.7854 10.8718L17.7705 11.8568L16.2932 13.3344L15.3079 12.3491ZM19.0016 14.5655C18.8054 14.7608 18.5398 14.8705 18.2629 14.8705C17.9861 14.8705 17.7205 14.7608 17.5243 14.5655L16.7856 13.8268L18.2629 12.3492L19.0016 13.0878C19.1972 13.2839 19.3071 13.5496 19.3071 13.8267C19.3071 14.1037 19.1972 14.3694 19.0016 14.5655L19.0016 14.5655Z" fill="url(#paint0_linear_0_2164)"/>
<defs>
<linearGradient id="paint0_linear_0_2164" x1="0" y1="0" x2="23.2722" y2="14.899" gradientUnits="userSpaceOnUse">
<stop stop-color="#AD37E0"/>
<stop offset="1" stop-color="#EE2B3B"/>
</linearGradient>
</defs>
</svg>
