<svg width="12" height="11" viewBox="0 0 12 11" fill="none" xmlns="http://www.w3.org/2000/svg">
<path d="M10.865 3.67L7.97 3.25L6.675 0.625002C6.55 0.370002 6.29 0.205002 6 0.205002C5.71 0.205002 5.455 0.365002 5.325 0.625002L4.03 3.25L1.135 3.67C0.855 3.71 0.62 3.91 0.53 4.18C0.44 4.45 0.515 4.75 0.72 4.95L2.815 6.99L2.32 9.875C2.29664 10.013 2.31233 10.1548 2.3653 10.2844C2.41827 10.414 2.5064 10.5262 2.61975 10.6084C2.73311 10.6905 2.86717 10.7394 3.0068 10.7494C3.14644 10.7594 3.28609 10.7302 3.41 10.665L6 9.3L8.59 10.66C8.7 10.72 8.82 10.745 8.94 10.745C9.095 10.745 9.25 10.695 9.38 10.6C9.61 10.43 9.725 10.15 9.68 9.865L9.185 6.98L11.28 4.94C11.485 4.74 11.56 4.445 11.47 4.17C11.38 3.905 11.145 3.71 10.865 3.67ZM7.855 6.19C7.68 6.36 7.595 6.61 7.64 6.855L7.945 8.63L6.35 7.79C6.24 7.735 6.12 7.705 6 7.705C5.88 7.705 5.76 7.735 5.65 7.79L4.055 8.63L4.36 6.855C4.4 6.61 4.32 6.365 4.145 6.19L2.855 4.935L4.635 4.675C4.88 4.64 5.09 4.485 5.2 4.265L6 2.65L6.795 4.265C6.905 4.485 7.115 4.64 7.36 4.675L9.14 4.935L7.855 6.19Z" fill="white"/>
</svg>
