<svg width="18" height="22" viewBox="0 0 18 22" fill="none" xmlns="http://www.w3.org/2000/svg">
<path d="M16.6829 6.50091C16.9345 5.78043 16.9797 5.00396 16.8133 4.25918C16.6469 3.51439 16.2756 2.83095 15.7413 2.28604C15.2182 1.73053 14.5501 1.33244 13.8125 1.13677C13.075 0.941094 12.2974 0.955639 11.5677 1.17876L9.59205 1.76061C9.1767 1.88327 8.73476 1.88327 8.31941 1.76061L6.34409 1.17878C5.61436 0.955681 4.83679 0.941148 4.09924 1.13682C3.36169 1.33249 2.69357 1.73057 2.17041 2.28606C1.63613 2.83097 1.26484 3.5144 1.09846 4.25919C0.93208 5.00397 0.977235 5.78043 1.22883 6.50091L2.58231 10.5034C2.74265 10.985 2.73814 11.5063 2.56949 11.985C2.16044 13.2276 2.00538 14.5397 2.11351 15.8434C2.22165 17.1471 2.59077 18.4157 3.19896 19.5739L3.62734 20.3846C3.72581 20.5768 3.87723 20.7367 4.0637 20.8456C4.25017 20.9545 4.46392 21.0078 4.67968 20.9991C4.89515 20.9939 5.10479 20.9281 5.28455 20.8092C5.46432 20.6903 5.60693 20.5232 5.69602 20.3269L7.83336 15.6635C7.93185 15.4486 8.08999 15.2664 8.28898 15.1387C8.48797 15.011 8.71943 14.9431 8.95587 14.9431C9.19232 14.9431 9.42378 15.011 9.62277 15.1387C9.82176 15.2664 9.9799 15.4486 10.0784 15.6635L12.2157 20.3269C12.3048 20.5232 12.4474 20.6903 12.6272 20.8092C12.807 20.9281 13.0166 20.9939 13.2321 20.9991L13.2653 20.9997C13.4752 21.0004 13.6813 20.9434 13.861 20.8349C14.0407 20.7264 14.1872 20.5706 14.2844 20.3846L14.6856 19.6258C15.3022 18.4518 15.6766 17.1658 15.7864 15.8442C15.8962 14.5227 15.7392 13.1926 15.3249 11.9329C15.172 11.4684 15.1736 10.9669 15.3294 10.5034L16.6829 6.50091ZM14.7317 12.1297C15.1198 13.3094 15.2668 14.555 15.164 15.7927C15.0611 17.0303 14.7106 18.2346 14.1331 19.3341L13.7322 20.0929C13.6888 20.1825 13.6197 20.2571 13.5337 20.3072C13.4478 20.3574 13.3488 20.3808 13.2495 20.3745C13.1505 20.3729 13.0541 20.3431 12.9716 20.2885C12.8891 20.2339 12.824 20.1568 12.7839 20.0663L10.6465 15.403C10.4981 15.0793 10.2599 14.805 9.96022 14.6128C9.66053 14.4205 9.31195 14.3183 8.95588 14.3183C8.59981 14.3183 8.25123 14.4205 7.95154 14.6128C7.65185 14.805 7.41365 15.0793 7.26524 15.403L5.12788 20.0663C5.08777 20.1568 5.02261 20.2339 4.94011 20.2885C4.85761 20.3431 4.7612 20.3729 4.66228 20.3745C4.56317 20.3797 4.46473 20.3558 4.37903 20.3057C4.29333 20.2557 4.22411 20.1817 4.17987 20.0929L3.75149 19.2822C3.18027 18.1912 2.83499 16.9961 2.73628 15.7686C2.63757 14.541 2.78747 13.3062 3.17702 12.1379C3.37705 11.5426 3.37609 10.898 3.17428 10.3033L1.82079 6.30078C1.60703 5.68853 1.56865 5.02871 1.71001 4.39581C1.85137 3.76291 2.16682 3.18212 2.62077 2.719C3.0654 2.24697 3.6332 1.90871 4.25999 1.74242C4.88678 1.57614 5.54758 1.58847 6.16773 1.77803L8.14274 2.35988C8.31233 2.40784 8.48598 2.44008 8.66148 2.45618C8.27091 2.86517 7.9988 3.37258 7.87422 3.92421C7.85636 4.00513 7.87137 4.08982 7.91594 4.15968C7.96051 4.22954 8.03099 4.27884 8.1119 4.29675C8.13416 4.30157 8.15686 4.30402 8.17964 4.30408C8.25074 4.304 8.31968 4.27968 8.3751 4.23514C8.43051 4.1906 8.46908 4.12849 8.48445 4.05907C8.56975 3.68009 8.7417 3.32602 8.98681 3.02465C9.23192 2.72327 9.54352 2.48278 9.89717 2.32204L11.744 1.77802C12.3642 1.58856 13.0249 1.57628 13.6517 1.74255C14.2785 1.90883 14.8463 2.24704 15.291 2.719C15.7449 3.18211 16.0604 3.76289 16.2017 4.39579C16.3431 5.02869 16.3047 5.6885 16.091 6.30075L14.7375 10.3032C14.5385 10.8955 14.5365 11.5362 14.7317 12.1297Z" fill="url(#paint0_linear_0_2158)" stroke="url(#paint1_linear_0_2158)" stroke-width="0.2"/>
<defs>
<linearGradient id="paint0_linear_0_2158" x1="1" y1="1" x2="21.7227" y2="11.5515" gradientUnits="userSpaceOnUse">
<stop stop-color="#AD37E0"/>
<stop offset="1" stop-color="#EE2B3B"/>
</linearGradient>
<linearGradient id="paint1_linear_0_2158" x1="1" y1="1" x2="17" y2="21" gradientUnits="userSpaceOnUse">
<stop stop-color="#B635C9"/>
<stop offset="1" stop-color="#E52D51"/>
</linearGradient>
</defs>
</svg>
