<svg width="14" height="14" viewBox="0 0 14 14" fill="none" xmlns="http://www.w3.org/2000/svg">
<g clip-path="url(#clip0_12_4557)">
<path d="M6.99999 12.8947C3.74462 12.8947 1.10525 10.2557 1.10525 7.00001C1.10525 3.74464 3.74462 1.10528 6.99999 1.10528C10.2557 1.10528 12.8947 3.74464 12.8947 7.00001C12.8947 10.2557 10.2557 12.8947 6.99999 12.8947ZM6.99999 0.368434C3.33751 0.368434 0.368408 3.33791 0.368408 7.00001C0.368408 10.6625 3.33751 13.6316 6.99999 13.6316C10.6625 13.6316 13.6316 10.6625 13.6316 7.00001C13.6316 3.33791 10.6625 0.368434 6.99999 0.368434Z" fill="white"/>
<path d="M7.26637 2.78233C8.10011 2.78233 9.72227 3.05643 9.72227 4.06186C9.72227 4.47301 9.43637 4.82707 9.01416 4.82707C8.54553 4.82707 8.22611 4.42733 7.26637 4.42733C5.84979 4.42733 5.11884 5.62691 5.11884 7.02028C5.11884 8.37938 5.86121 9.5447 7.26637 9.5447C8.22611 9.5447 8.61406 9.06538 9.08232 9.06538C9.597 9.06538 9.83648 9.57896 9.83648 9.84164C9.83648 10.9384 8.11153 11.1897 7.26637 11.1897C4.94753 11.1897 3.33679 9.35054 3.33679 6.98601C3.33679 4.61007 4.93611 2.78233 7.26637 2.78233Z" fill="white"/>
</g>
<defs>
<clipPath id="clip0_12_4557">
<rect width="14" height="14" fill="white"/>
</clipPath>
</defs>
</svg>
