<svg width="12" height="16" viewBox="0 0 12 16" fill="none" xmlns="http://www.w3.org/2000/svg">
<path d="M10.617 2.44944C9.93745 1.01081 8.99418 1.07444 8.48989 1.23972C8.24295 1.32142 8.01207 1.46863 7.82262 1.66584C7.78804 1.70189 7.76641 1.72488 7.73541 1.75747C7.27819 1.1731 6.70725 0.54541 5.8481 0.54541C4.86714 0.54541 4.06188 1.26618 3.68388 1.67398C3.58741 1.678 3.4906 1.67912 3.39575 1.69586L3.36661 1.66528C3.17587 1.46818 2.94501 1.32085 2.69874 1.23916C2.197 1.07443 1.25305 1.00892 0.565167 2.46751C0.528962 2.55735 -0.305112 4.71093 0.326548 7.70779L0.382761 7.97297L2.77496 7.8925L3.09501 6.55813C3.13769 6.37967 3.29928 6.25556 3.48874 6.25556L8.04371 6.25545C8.23317 6.25545 8.39474 6.37955 8.43744 6.55802L8.77426 7.96359H10.8089L10.8633 7.70779C11.4949 4.71093 10.6609 2.55721 10.6169 2.44921L10.617 2.44944ZM5.84823 1.18427C6.43582 1.18427 6.8861 1.7249 7.28238 2.23995C7.22605 2.30178 7.18337 2.34933 7.15815 2.37779C7.10703 2.43582 7.10645 2.43515 7.01207 2.51629C6.70753 2.77835 6.38101 2.97666 5.73317 2.52377C5.64329 2.46071 5.54243 2.39464 5.43579 2.32478C5.31492 2.24554 5.18688 2.16127 5.05885 2.07087C4.88304 1.94732 4.69138 1.86205 4.49545 1.79464C4.8339 1.50356 5.32339 1.18427 5.84829 1.18427L5.84823 1.18427ZM10.2655 7.32484H9.30086L9.08295 6.4147C8.9704 5.94495 8.54315 5.61681 8.04392 5.61681L3.48925 5.6167C2.99016 5.6167 2.56277 5.94481 2.45022 6.41458L2.24526 7.27116L0.923775 7.31546C0.434404 4.64726 1.17593 2.71575 1.17593 2.71404C1.7074 1.58926 2.29313 1.78078 2.48515 1.84372C2.55825 1.86805 2.62869 1.90232 2.69589 1.94606C2.59434 2.0041 2.49671 2.07084 2.4043 2.14629C2.20778 2.30722 2.03254 2.50443 1.88321 2.73266L2.44315 3.07329C2.55627 2.90052 2.68755 2.75263 2.83238 2.63412C3.35091 2.21112 4.10538 2.19183 4.66857 2.58668C4.8024 2.68155 4.93692 2.77005 5.06358 2.85309C5.16444 2.91927 5.26009 2.98155 5.34545 3.04148C6.35798 3.74951 7.03289 3.35342 7.4538 2.99215C7.58832 2.87731 7.58763 2.87675 7.66258 2.79193C7.72978 2.71581 7.87078 2.55677 8.30915 2.10007C8.42424 1.98032 8.5613 1.8917 8.70415 1.84427C8.89813 1.77875 9.48258 1.58969 10.0069 2.69584C10.0148 2.71593 10.7609 4.64115 10.2656 7.32498L10.2655 7.32484Z" fill="url(#paint0_linear_11_4523)"/>
<path d="M8.48267 8.30792C8.38575 7.90369 8.01782 7.62109 7.5872 7.62109H3.94778C3.51716 7.62109 3.14934 7.90368 3.04905 8.32166L2.8833 9.19132H0.516541L0.623878 9.59121C0.762908 10.1072 2.00677 14.6575 2.89648 15.4361C2.96888 15.4942 3.08779 15.5453 3.22681 15.5453C3.2895 15.5453 3.35543 15.5347 3.42402 15.5104C3.84295 15.362 4.13778 14.7555 4.35118 13.6027C4.60588 12.2258 5.08889 11.4554 5.35459 11.1179C5.4632 10.9793 5.70435 10.9787 5.81296 11.1185C6.07864 11.4553 6.56166 12.2259 6.81636 13.6027C7.02977 14.7556 7.3246 15.3619 7.74353 15.5104C7.96341 15.5896 8.16639 15.5191 8.28332 15.4261C9.16065 14.6575 10.4046 10.1073 10.5437 9.59126L10.651 9.19137H8.65357L8.48267 8.30792ZM3.69763 8.45145C3.72482 8.3385 3.82764 8.25993 3.94782 8.25993H7.58723C7.70753 8.25993 7.81023 8.3385 7.83487 8.43839L7.98061 9.19139L3.55712 9.19128L3.69763 8.45145ZM7.92541 14.8646C7.83553 14.7579 7.64226 14.431 7.46828 13.4902C7.18895 11.9818 6.64197 11.1146 6.34066 10.7322C6.16288 10.5051 5.87974 10.3697 5.58352 10.3697C5.28799 10.3697 5.00485 10.5051 4.82706 10.7315C4.52575 11.1146 3.97879 11.9818 3.69944 13.4902C3.52687 14.4247 3.33476 14.7535 3.2443 14.8621C2.71999 14.2108 1.87748 11.6261 1.37446 9.83013H9.79299C9.28766 11.6362 8.43867 14.2401 7.92535 14.8647L7.92541 14.8646Z" fill="url(#paint1_linear_11_4523)"/>
<defs>
<linearGradient id="paint0_linear_11_4523" x1="0.0908813" y1="0.54541" x2="9.59415" y2="9.5593" gradientUnits="userSpaceOnUse">
<stop stop-color="#AD37E0"/>
<stop offset="1" stop-color="#EE2B3B"/>
</linearGradient>
<linearGradient id="paint1_linear_11_4523" x1="0.516541" y1="7.62109" x2="10.4692" y2="15.7674" gradientUnits="userSpaceOnUse">
<stop stop-color="#AD37E0"/>
<stop offset="1" stop-color="#EE2B3B"/>
</linearGradient>
</defs>
</svg>
