<svg width="66" height="66" viewBox="0 0 66 66" fill="none" xmlns="http://www.w3.org/2000/svg">
<g filter="url(#filter0_dd_12_2206)">
<g clip-path="url(#clip0_12_2206)">
<rect x="36" y="36" width="11" height="11" rx="5.5" transform="rotate(-180 36 36)" fill="#252525"/>
<path d="M34.8752 32.361C34.7463 32.4899 34.5715 32.5623 34.3892 32.5623C34.2069 32.5623 34.032 32.4899 33.9031 32.361L30.5 28.9578L27.0969 32.361C26.9672 32.4862 26.7935 32.5555 26.6133 32.5539C26.433 32.5524 26.2606 32.4801 26.1331 32.3526C26.0057 32.2251 25.9334 32.0527 25.9318 31.8724C25.9302 31.6922 25.9995 31.5185 26.1247 31.3888L30.0139 27.4997C30.1429 27.3708 30.3177 27.2984 30.5 27.2984C30.6823 27.2984 30.8571 27.3708 30.9861 27.4997L34.8752 31.3888C35.0041 31.5178 35.0765 31.6926 35.0765 31.8749C35.0765 32.0572 35.0041 32.232 34.8752 32.361Z" fill="white" stroke="white"/>
</g>
</g>
<defs>
<filter id="filter0_dd_12_2206" x="0" y="0" width="66" height="66" filterUnits="userSpaceOnUse" color-interpolation-filters="sRGB">
<feFlood flood-opacity="0" result="BackgroundImageFix"/>
<feColorMatrix in="SourceAlpha" type="matrix" values="0 0 0 0 0 0 0 0 0 0 0 0 0 0 0 0 0 0 127 0" result="hardAlpha"/>
<feOffset dx="10" dy="10"/>
<feGaussianBlur stdDeviation="10"/>
<feComposite in2="hardAlpha" operator="out"/>
<feColorMatrix type="matrix" values="0 0 0 0 0.116667 0 0 0 0 0.116667 0 0 0 0 0.116667 0 0 0 1 0"/>
<feBlend mode="normal" in2="BackgroundImageFix" result="effect1_dropShadow_12_2206"/>
<feColorMatrix in="SourceAlpha" type="matrix" values="0 0 0 0 0 0 0 0 0 0 0 0 0 0 0 0 0 0 127 0" result="hardAlpha"/>
<feOffset dx="-10" dy="-10"/>
<feGaussianBlur stdDeviation="7.5"/>
<feComposite in2="hardAlpha" operator="out"/>
<feColorMatrix type="matrix" values="0 0 0 0 0.170104 0 0 0 0 0.170104 0 0 0 0 0.170104 0 0 0 1 0"/>
<feBlend mode="normal" in2="effect1_dropShadow_12_2206" result="effect2_dropShadow_12_2206"/>
<feBlend mode="normal" in="SourceGraphic" in2="effect2_dropShadow_12_2206" result="shape"/>
</filter>
<clipPath id="clip0_12_2206">
<rect x="36" y="36" width="11" height="11" rx="5.5" transform="rotate(-180 36 36)" fill="white"/>
</clipPath>
</defs>
</svg>
