<svg width="24" height="24" viewBox="0 0 24 24" fill="none" xmlns="http://www.w3.org/2000/svg">
<path d="M22.56 16.3L14.89 3.58C14.5799 3.09481 14.1526 2.69552 13.6475 2.41894C13.1424 2.14235 12.5758 1.99738 12 1.99738C11.4242 1.99738 10.8576 2.14235 10.3525 2.41894C9.84745 2.69552 9.42015 3.09481 9.11 3.58L1.44 16.3C1.16905 16.7517 1.02179 17.2667 1.01301 17.7933C1.00424 18.3199 1.13426 18.8396 1.39 19.3C1.68568 19.8183 2.11366 20.2487 2.6302 20.5474C3.14674 20.8461 3.73333 21.0023 4.33 21H19.67C20.2628 21.0063 20.8467 20.8562 21.3629 20.5647C21.8791 20.2733 22.3092 19.8508 22.61 19.34C22.8733 18.8748 23.0074 18.3477 22.9986 17.8132C22.9898 17.2787 22.8384 16.7563 22.56 16.3ZM12 17C11.8022 17 11.6089 16.9414 11.4444 16.8315C11.28 16.7216 11.1518 16.5654 11.0761 16.3827C11.0004 16.2 10.9806 15.9989 11.0192 15.8049C11.0578 15.6109 11.153 15.4327 11.2929 15.2929C11.4327 15.153 11.6109 15.0578 11.8049 15.0192C11.9989 14.9806 12.2 15.0004 12.3827 15.0761C12.5654 15.1518 12.7216 15.28 12.8315 15.4444C12.9414 15.6089 13 15.8022 13 16C13 16.2652 12.8946 16.5196 12.7071 16.7071C12.5196 16.8946 12.2652 17 12 17ZM13 13C13 13.2652 12.8946 13.5196 12.7071 13.7071C12.5196 13.8946 12.2652 14 12 14C11.7348 14 11.4804 13.8946 11.2929 13.7071C11.1054 13.5196 11 13.2652 11 13V9C11 8.73478 11.1054 8.48043 11.2929 8.29289C11.4804 8.10536 11.7348 8 12 8C12.2652 8 12.5196 8.10536 12.7071 8.29289C12.8946 8.48043 13 8.73478 13 9V13Z" fill="url(#paint0_linear_6_2291)"/>
<defs>
<linearGradient id="paint0_linear_6_2291" x1="1.0126" y1="1.99738" x2="24.3009" y2="19.2421" gradientUnits="userSpaceOnUse">
<stop stop-color="#AD37E0"/>
<stop offset="1" stop-color="#EE2B3B"/>
</linearGradient>
</defs>
</svg>
