<svg width="34" height="34" viewBox="0 0 34 34" fill="none" xmlns="http://www.w3.org/2000/svg">
<path d="M23.885 29.75C23.6416 29.7493 23.4026 29.6858 23.1908 29.5658L16.9008 26.0242L10.5542 29.4525C10.3198 29.5787 10.0547 29.6363 9.78907 29.6188C9.52348 29.6013 9.26821 29.5093 9.0525 29.3533C8.83271 29.1959 8.66256 28.9788 8.56215 28.7278C8.46174 28.4768 8.43526 28.2023 8.48583 27.9367L9.76083 20.4708L4.64666 15.1725C4.46944 14.9878 4.34556 14.7586 4.28819 14.5091C4.23082 14.2597 4.2421 13.9994 4.32083 13.7558C4.39617 13.4962 4.54425 13.2635 4.74758 13.0852C4.95092 12.907 5.20101 12.7907 5.46833 12.75L12.5517 11.73L15.7958 5.01501C15.9177 4.77968 16.1031 4.58325 16.3309 4.44802C16.5588 4.31279 16.8201 4.24419 17.085 4.25001C17.3535 4.25203 17.616 4.33035 17.8417 4.47582C18.0675 4.6213 18.2472 4.82795 18.36 5.07167L21.4767 11.8575L28.56 13.005C28.8166 13.0469 29.0567 13.1586 29.2541 13.3279C29.4514 13.4972 29.5984 13.7175 29.6789 13.9648C29.7593 14.212 29.7702 14.4766 29.7103 14.7296C29.6504 14.9826 29.522 15.2143 29.3392 15.3992L25.16 19.6492C24.8946 19.913 24.5355 20.0611 24.1612 20.0611C23.787 20.0611 23.4279 19.913 23.1625 19.6492C23.0297 19.5175 22.9243 19.3608 22.8524 19.1882C22.7805 19.0155 22.7434 18.8304 22.7434 18.6433C22.7434 18.4563 22.7805 18.2712 22.8524 18.0985C22.9243 17.9259 23.0297 17.7692 23.1625 17.6375L25.4008 15.3992L20.3008 14.5775C20.071 14.5406 19.8539 14.4475 19.6685 14.3067C19.4832 14.1659 19.3355 13.9815 19.2383 13.77L17 8.99584L14.79 13.685C14.6897 13.8957 14.539 14.0783 14.3512 14.2167C14.1633 14.3551 13.9442 14.445 13.7133 14.4783L8.59916 15.2008L12.3108 19.0542C12.4651 19.216 12.5789 19.412 12.643 19.6262C12.707 19.8404 12.7194 20.0667 12.6792 20.2867L11.7725 25.5708L16.2492 23.1625C16.4645 23.0382 16.7088 22.9727 16.9575 22.9727C17.2062 22.9727 17.4505 23.0382 17.6658 23.1625L21.9158 25.5708L21.59 23.9558C21.5149 23.5801 21.592 23.1899 21.8046 22.8711C22.0171 22.5523 22.3476 22.331 22.7233 22.2558C23.0991 22.1807 23.4892 22.2579 23.8081 22.4704C24.1269 22.683 24.3482 23.0134 24.4233 23.3892L25.3583 28.0358C25.4104 28.3001 25.3861 28.5737 25.2883 28.8246C25.1904 29.0755 25.0231 29.2933 24.8058 29.4525C24.5433 29.6567 24.2173 29.762 23.885 29.75Z" fill="white"/>
</svg>
