<svg width="24" height="23" viewBox="0 0 24 23" fill="none" xmlns="http://www.w3.org/2000/svg">
<g filter="url(#filter0_d_12_4645)">
<path d="M10.146 2.24792C10.2954 1.87864 10.5517 1.56238 10.882 1.3397C11.2124 1.11701 11.6017 0.998047 12 0.998047C12.3984 0.998047 12.7877 1.11701 13.118 1.3397C13.4483 1.56238 13.7046 1.87864 13.854 2.24792C15.3328 2.65461 16.6371 3.53548 17.5668 4.75526C18.4964 5.97504 19 7.46627 19 8.99992V13.6969L20.832 16.4449C20.9325 16.5955 20.9902 16.7706 20.999 16.9514C21.0078 17.1322 20.9673 17.3121 20.8819 17.4717C20.7965 17.6313 20.6693 17.7648 20.514 17.8578C20.3587 17.9508 20.1811 18 20 17.9999H15.465C15.3446 18.833 14.9281 19.5949 14.2917 20.1459C13.6554 20.6969 12.8418 21.0001 12 21.0001C11.1583 21.0001 10.3447 20.6969 9.70833 20.1459C9.07197 19.5949 8.65543 18.833 8.53503 17.9999H4.00003C3.81898 18 3.64133 17.9508 3.48602 17.8578C3.33071 17.7648 3.20356 17.6313 3.11815 17.4717C3.03274 17.3121 2.99227 17.1322 3.00106 16.9514C3.00984 16.7706 3.06755 16.5955 3.16803 16.4449L5.00003 13.6969V8.99992C5.00003 5.77592 7.18003 3.05992 10.146 2.24792ZM10.586 17.9999C10.6893 18.2926 10.8808 18.546 11.1342 18.7252C11.3875 18.9045 11.6902 19.0007 12.0005 19.0007C12.3109 19.0007 12.6136 18.9045 12.8669 18.7252C13.1202 18.546 13.3117 18.2926 13.415 17.9999H10.585H10.586ZM12 3.99992C10.6739 3.99992 9.40218 4.52671 8.46449 5.46439C7.52681 6.40207 7.00003 7.67384 7.00003 8.99992V13.9999C7.00007 14.1975 6.94161 14.3906 6.83203 14.5549L5.86903 15.9999H18.13L17.167 14.5549C17.0578 14.3905 16.9997 14.1974 17 13.9999V8.99992C17 7.67384 16.4732 6.40207 15.5356 5.46439C14.5979 4.52671 13.3261 3.99992 12 3.99992Z" fill="white"/>
</g>
<defs>
<filter id="filter0_d_12_4645" x="-1.00012" y="0.998047" width="26.0002" height="28.0022" filterUnits="userSpaceOnUse" color-interpolation-filters="sRGB">
<feFlood flood-opacity="0" result="BackgroundImageFix"/>
<feColorMatrix in="SourceAlpha" type="matrix" values="0 0 0 0 0 0 0 0 0 0 0 0 0 0 0 0 0 0 127 0" result="hardAlpha"/>
<feOffset dy="4"/>
<feGaussianBlur stdDeviation="2"/>
<feComposite in2="hardAlpha" operator="out"/>
<feColorMatrix type="matrix" values="0 0 0 0 0 0 0 0 0 0 0 0 0 0 0 0 0 0 0.25 0"/>
<feBlend mode="normal" in2="BackgroundImageFix" result="effect1_dropShadow_12_4645"/>
<feBlend mode="normal" in="SourceGraphic" in2="effect1_dropShadow_12_4645" result="shape"/>
</filter>
</defs>
</svg>
