<svg width="32" height="34" viewBox="0 0 32 34" fill="none" xmlns="http://www.w3.org/2000/svg">
<path d="M16 8.5C15.2089 8.5 14.4355 8.74926 13.7777 9.21625C13.1199 9.68325 12.6072 10.347 12.3045 11.1236C12.0017 11.9002 11.9225 12.7547 12.0769 13.5791C12.2312 14.4036 12.6122 15.1608 13.1716 15.7552C13.731 16.3496 14.4437 16.7544 15.2196 16.9183C15.9956 17.0823 16.7998 16.9982 17.5307 16.6765C18.2616 16.3548 18.8864 15.8101 19.3259 15.1112C19.7654 14.4123 20 13.5906 20 12.75C20 11.6228 19.5786 10.5418 18.8284 9.7448C18.0783 8.94777 17.0609 8.5 16 8.5V8.5ZM16 14.875C15.6044 14.875 15.2178 14.7504 14.8889 14.5169C14.56 14.2834 14.3036 13.9515 14.1522 13.5632C14.0009 13.1749 13.9613 12.7476 14.0384 12.3354C14.1156 11.9232 14.3061 11.5446 14.5858 11.2474C14.8655 10.9502 15.2219 10.7478 15.6098 10.6658C15.9978 10.5838 16.3999 10.6259 16.7654 10.7868C17.1308 10.9476 17.4432 11.22 17.6629 11.5694C17.8827 11.9189 18 12.3297 18 12.75C18 13.3136 17.7893 13.8541 17.4142 14.2526C17.0391 14.6511 16.5304 14.875 16 14.875V14.875Z" fill="white"/>
<path d="M24.424 10.1851C24.2101 9.90717 24.0256 9.60502 23.874 9.28413C23.7597 8.92658 23.6829 8.55672 23.645 8.18126C23.6028 7.24389 23.2707 6.34752 22.7 5.63126C22.025 5.02685 21.1817 4.67514 20.3 4.63038C19.9446 4.59037 19.5945 4.50877 19.256 4.38707C18.9545 4.22567 18.6704 4.02972 18.409 3.80269C17.7447 3.15577 16.8978 2.76021 16 2.67751C15.1009 2.75833 14.2522 3.15281 13.586 3.79951C13.3244 4.0268 13.04 4.22278 12.738 4.38388C12.3999 4.50571 12.0501 4.58732 11.695 4.62719C10.8145 4.67315 9.9728 5.02602 9.3 5.63126C8.73115 6.3484 8.40014 7.24445 8.358 8.18126C8.32035 8.55884 8.24355 8.93084 8.129 9.29051C7.9771 9.6109 7.79267 9.91267 7.579 10.1904C6.97014 10.8963 6.59784 11.7961 6.52 12.75C6.59608 13.7053 6.96735 14.6071 7.576 15.3149C7.78993 15.5928 7.97438 15.895 8.126 16.2159C8.24067 16.5751 8.31747 16.9468 8.355 17.3241C8.41848 18.0772 8.6388 18.806 9 19.4576V29.75C9.00007 30.1346 9.09835 30.5119 9.28436 30.8417C9.47037 31.1716 9.73714 31.4417 10.0562 31.6231C10.3753 31.8046 10.7348 31.8907 11.0963 31.8721C11.4578 31.8536 11.8078 31.7312 12.109 31.518L16 28.7619L19.891 31.518C20.1922 31.7312 20.5422 31.8536 20.9037 31.8721C21.2652 31.8907 21.6247 31.8046 21.9438 31.6231C22.2629 31.4417 22.5296 31.1716 22.7157 30.8417C22.9017 30.5119 22.9999 30.1346 23 29.75V19.4576C23.361 18.8059 23.5813 18.0772 23.645 17.3241C23.6827 16.9465 23.7595 16.5745 23.874 16.2148C24.0259 15.8944 24.2103 15.5927 24.424 15.3149C25.0328 14.6072 25.4041 13.7054 25.48 12.75C25.4039 11.7947 25.0327 10.8929 24.424 10.1851V10.1851ZM13 28.3337L11 29.75V20.7421C11.235 20.7942 11.469 20.8356 11.7 20.8728C12.0554 20.9128 12.4055 20.9944 12.744 21.1161C12.8345 21.1617 12.9218 21.2142 13.005 21.2734L13 28.3337ZM17 26.9397C16.6969 26.7503 16.3516 26.6505 16 26.6505C15.6484 26.6505 15.3031 26.7503 15 26.9397V22.5951C15.3145 22.745 15.6553 22.8226 16 22.8226C16.3447 22.8226 16.6855 22.745 17 22.5951V26.9397ZM21 29.75L19 28.3337V21.2734C19.0837 21.2144 19.1712 21.1618 19.262 21.1161C19.6001 20.9943 19.9499 20.9127 20.305 20.8728C20.531 20.8356 20.765 20.7942 21.005 20.7432L21 29.75ZM22.822 14.0431C22.5031 14.4585 22.2343 14.9146 22.022 15.4009C21.8413 15.9182 21.7207 16.457 21.663 17.0053C21.6456 17.4864 21.5157 17.9552 21.285 18.3696C20.8952 18.6151 20.4538 18.7532 20.001 18.7712C19.4852 18.8324 18.9785 18.9605 18.492 19.1526C18.0339 19.378 17.6042 19.6635 17.213 20.0026C16.8728 20.343 16.4546 20.5826 16 20.6975C15.5436 20.582 15.1239 20.3409 14.783 19.9984C14.392 19.6595 13.9627 19.374 13.505 19.1484C13.0196 18.9582 12.5142 18.8316 12 18.7712C11.5473 18.7527 11.106 18.6147 10.716 18.3696C10.4849 17.9554 10.355 17.4864 10.338 17.0053C10.2785 16.4585 10.1562 15.9215 9.974 15.4063C9.76191 14.9195 9.49314 14.4629 9.174 14.0473C8.85247 13.6835 8.62689 13.236 8.52 12.75C8.62869 12.2651 8.85563 11.8191 9.178 11.4569C9.49692 11.0415 9.76567 10.5854 9.978 10.0991C10.157 9.58333 10.2762 9.04636 10.333 8.50001C10.3504 8.01896 10.4803 7.5501 10.711 7.13576C11.1018 6.8875 11.545 6.74757 12 6.72882C12.5127 6.66685 13.0164 6.53876 13.5 6.34738C13.9581 6.12203 14.3878 5.83646 14.779 5.49738C15.1214 5.15575 15.5426 4.91607 16 4.80251C16.4564 4.91798 16.8761 5.15911 17.217 5.50163C17.608 5.84048 18.0373 6.12603 18.495 6.35163C18.9818 6.54366 19.4889 6.67175 20.005 6.73307C20.4578 6.75157 20.899 6.8896 21.289 7.13469C21.5203 7.54915 21.6502 8.01852 21.667 8.50001C21.7253 9.04477 21.8459 9.57996 22.026 10.0938C22.2381 10.5805 22.5069 11.0371 22.826 11.4527C23.1475 11.8165 23.3731 12.264 23.48 12.75C23.3713 13.2349 23.1444 13.6809 22.822 14.0431V14.0431Z" fill="white"/>
</svg>
