<svg width="14" height="14" viewBox="0 0 14 14" fill="none" xmlns="http://www.w3.org/2000/svg">
<g clip-path="url(#clip0_202_4624)">
<path d="M6.99974 12.8945C3.74437 12.8945 1.10501 10.2555 1.10501 6.99977C1.10501 3.7444 3.74437 1.10503 6.99974 1.10503C10.2555 1.10503 12.8945 3.7444 12.8945 6.99977C12.8945 10.2555 10.2555 12.8945 6.99974 12.8945ZM6.99974 0.36819C3.33727 0.36819 0.368164 3.33766 0.368164 6.99977C0.368164 10.6622 3.33727 13.6313 6.99974 13.6313C10.6622 13.6313 13.6313 10.6622 13.6313 6.99977C13.6313 3.33766 10.6622 0.36819 6.99974 0.36819Z" fill="#93607D"/>
<path d="M7.26649 2.78209C8.10023 2.78209 9.72239 3.05619 9.72239 4.06161C9.72239 4.47277 9.43649 4.82682 9.01428 4.82682C8.54565 4.82682 8.22623 4.42709 7.26649 4.42709C5.84991 4.42709 5.11897 5.62666 5.11897 7.02003C5.11897 8.37914 5.86133 9.54445 7.26649 9.54445C8.22623 9.54445 8.61418 9.06514 9.08244 9.06514C9.59712 9.06514 9.8366 9.57872 9.8366 9.8414C9.8366 10.9382 8.11165 11.1895 7.26649 11.1895C4.94765 11.1895 3.33691 9.3503 3.33691 6.98577C3.33691 4.60982 4.93623 2.78209 7.26649 2.78209Z" fill="#93607D"/>
</g>
<defs>
<clipPath id="clip0_202_4624">
<rect width="14" height="14" fill="white"/>
</clipPath>
</defs>
</svg>
