<svg width="20" height="20" viewBox="0 0 20 20" fill="none" xmlns="http://www.w3.org/2000/svg">
<path d="M15.545 14.6626L17.9862 17.1026C18.1001 17.2205 18.1631 17.3784 18.1616 17.5422C18.1602 17.7061 18.0945 17.8629 17.9786 17.9787C17.8627 18.0946 17.706 18.1603 17.5421 18.1618C17.3782 18.1632 17.2204 18.1002 17.1025 17.9864L14.6612 15.5451C13.0659 16.9119 11.0032 17.6077 8.906 17.4865C6.80875 17.3652 4.83998 16.4364 3.41279 14.8949C1.98561 13.3534 1.21095 11.319 1.25138 9.21863C1.29181 7.11827 2.14419 5.11521 3.62964 3.62976C5.11509 2.14431 7.11815 1.29194 9.21851 1.25151C11.3189 1.21108 13.3532 1.98573 14.8948 3.41291C16.4363 4.8401 17.3651 6.80887 17.4863 8.90612C17.6076 11.0034 16.9118 13.0661 15.545 14.6614V14.6626ZM9.37498 16.2501C11.1983 16.2501 12.947 15.5258 14.2363 14.2365C15.5257 12.9471 16.25 11.1985 16.25 9.3751C16.25 7.55174 15.5257 5.80305 14.2363 4.51374C12.947 3.22443 11.1983 2.5001 9.37498 2.5001C7.55162 2.5001 5.80293 3.22443 4.51362 4.51374C3.22431 5.80305 2.49998 7.55174 2.49998 9.3751C2.49998 11.1985 3.22431 12.9471 4.51362 14.2365C5.80293 15.5258 7.55162 16.2501 9.37498 16.2501Z" fill="white" stroke="white"/>
</svg>
