<svg width="32" height="32" viewBox="0 0 32 32" fill="none" xmlns="http://www.w3.org/2000/svg">
<g clip-path="url(#clip0_0_2177)">
<path d="M30.2563 28.7001C28.9438 27.8719 27.6344 27.0407 26.3219 26.2125C26.1375 26.0969 25.9531 25.9782 25.7687 25.8625C25.3125 25.575 24.6469 25.575 24.1906 25.8625C22.8781 26.6907 21.5688 27.5219 20.2563 28.35C20.0719 28.4657 19.8875 28.5844 19.7031 28.7001H21.2812C19.9688 27.8719 18.6594 27.0407 17.3469 26.2125C17.1625 26.0969 16.9781 25.9782 16.7938 25.8625C16.3375 25.575 15.6719 25.575 15.2156 25.8625C13.9031 26.6907 12.5938 27.5219 11.2812 28.35C11.0969 28.4657 10.9125 28.5844 10.7281 28.7001H12.3062C10.9937 27.8719 9.68437 27.0407 8.37187 26.2125C8.1875 26.0969 8.00312 25.9782 7.81875 25.8625C7.3625 25.575 6.69687 25.575 6.24062 25.8625C4.92812 26.6907 3.61875 27.5219 2.30625 28.35C2.12188 28.4657 1.9375 28.5844 1.75312 28.7001C2.5375 29.1501 3.32188 29.6 4.10313 30.05V4.16567C4.10313 4.0563 4.10938 3.94692 4.125 3.83755C4.10625 3.97505 4.0875 4.11567 4.06875 4.25317C4.09687 4.05942 4.15 3.87192 4.225 3.6938C4.17187 3.8188 4.11875 3.9438 4.06875 4.06567C4.14687 3.89067 4.24375 3.72817 4.35938 3.57505C4.27813 3.6813 4.19687 3.78442 4.11562 3.89067C4.225 3.75317 4.35 3.62817 4.4875 3.5188C4.38125 3.60005 4.27813 3.6813 4.17188 3.76255C4.325 3.64692 4.48437 3.55005 4.6625 3.47192C4.5375 3.52505 4.4125 3.57817 4.29063 3.62817C4.47188 3.55317 4.65625 3.50005 4.85 3.47192C4.7125 3.49067 4.57187 3.50942 4.43437 3.52817C4.7125 3.4938 4.99688 3.5063 5.275 3.5063H27.275C27.3812 3.5063 27.4906 3.51255 27.5969 3.52817C27.4594 3.50942 27.3187 3.49067 27.1812 3.47192C27.375 3.50005 27.5625 3.55317 27.7406 3.62817C27.6156 3.57505 27.4906 3.52192 27.3687 3.47192C27.5437 3.55005 27.7062 3.64692 27.8594 3.76255C27.7531 3.6813 27.65 3.60005 27.5438 3.5188C27.6813 3.62817 27.8062 3.75317 27.9156 3.89067C27.8344 3.78442 27.7531 3.6813 27.6719 3.57505C27.7875 3.72817 27.8844 3.88755 27.9625 4.06567C27.9094 3.94067 27.8562 3.81567 27.8062 3.6938C27.8812 3.87505 27.9344 4.05942 27.9625 4.25317C27.9437 4.11567 27.925 3.97505 27.9062 3.83755C27.9438 4.14067 27.9281 4.4563 27.9281 4.76255V28.9844C27.9281 29.325 27.925 29.6657 27.9281 30.0063V30.05C27.9281 30.45 28.1031 30.8719 28.3844 31.1563C28.6562 31.4282 29.1 31.6313 29.4906 31.6125C29.8938 31.5938 30.3125 31.4625 30.5969 31.1563C30.8781 30.85 31.0531 30.475 31.0531 30.05V4.14692C31.0469 3.30005 30.7656 2.51255 30.25 1.84692C29.5188 0.900049 28.4031 0.393799 27.2125 0.393799H4.8125C4.53438 0.393799 4.25625 0.431299 3.98125 0.475049C2.96875 0.634424 2.1375 1.2938 1.575 2.09692C1.12813 2.73755 0.96875 3.5313 0.96875 4.30317V30.0532C0.96875 30.6032 1.26875 31.1251 1.74375 31.4032C2.2125 31.6782 2.85313 31.7001 3.32188 31.4032C4.63438 30.5751 5.94375 29.7438 7.25625 28.9157C7.44062 28.8 7.625 28.6813 7.80937 28.5657H6.23125C7.54375 29.3938 8.85312 30.225 10.1656 31.0532C10.35 31.1688 10.5344 31.2876 10.7188 31.4032C11.175 31.6907 11.8406 31.6907 12.2969 31.4032C13.6094 30.5751 14.9188 29.7438 16.2313 28.9157C16.4156 28.8 16.6 28.6813 16.7844 28.5657H15.2063C16.5188 29.3938 17.8281 30.225 19.1406 31.0532C19.325 31.1688 19.5094 31.2876 19.6938 31.4032C20.15 31.6907 20.8156 31.6907 21.2719 31.4032C22.5844 30.5751 23.8937 29.7438 25.2062 28.9157C25.3906 28.8 25.575 28.6813 25.7594 28.5657H24.1812C25.4937 29.3938 26.8031 30.225 28.1156 31.0532C28.3 31.1688 28.4844 31.2876 28.6688 31.4032C29.0031 31.6157 29.4938 31.6657 29.8719 31.5594C30.2344 31.4594 30.6281 31.1782 30.8062 30.8407C31.225 30.0688 30.9969 29.1688 30.2563 28.7001Z" fill="url(#paint0_linear_0_2177)"/>
<path d="M8.63125 11.6594H21.5594C22.1531 11.6594 22.75 11.6656 23.3437 11.6594H23.3687C23.7687 11.6594 24.1906 11.4844 24.475 11.2031C24.7469 10.9313 24.95 10.4875 24.9312 10.0969C24.9125 9.69377 24.7812 9.27502 24.475 8.99064C24.1687 8.70939 23.7937 8.53439 23.3687 8.53439H10.4406C9.84687 8.53439 9.25 8.52814 8.65625 8.53439H8.63125C8.23125 8.53439 7.80937 8.70939 7.525 8.99064C7.25312 9.26252 7.05 9.70627 7.06875 10.0969C7.0875 10.5 7.21875 10.9188 7.525 11.2031C7.83125 11.4813 8.20625 11.6594 8.63125 11.6594ZM23.3687 16.3969H10.4406C9.84687 16.3969 9.25 16.3906 8.65625 16.3969H8.63125C8.23125 16.3969 7.80937 16.5719 7.525 16.8531C7.25312 17.125 7.05 17.5688 7.06875 17.9594C7.0875 18.3625 7.21875 18.7813 7.525 19.0656C7.83125 19.3469 8.20625 19.5219 8.63125 19.5219H21.5594C22.1531 19.5219 22.75 19.5281 23.3437 19.5219H23.3687C23.7687 19.5219 24.1906 19.3469 24.475 19.0656C24.7469 18.7938 24.95 18.35 24.9312 17.9594C24.9125 17.5563 24.7812 17.1375 24.475 16.8531C24.1687 16.5719 23.7937 16.3969 23.3687 16.3969Z" fill="url(#paint1_linear_0_2177)"/>
</g>
<defs>
<linearGradient id="paint0_linear_0_2177" x1="0.968749" y1="16.828" x2="31.6273" y2="16.828" gradientUnits="userSpaceOnUse">
<stop stop-color="#AD37E0"/>
<stop offset="1" stop-color="#EE2B3B"/>
</linearGradient>
<linearGradient id="paint1_linear_0_2177" x1="7.06755" y1="14.3174" x2="25.2734" y2="14.3174" gradientUnits="userSpaceOnUse">
<stop stop-color="#AD37E0"/>
<stop offset="1" stop-color="#EE2B3B"/>
</linearGradient>
<clipPath id="clip0_0_2177">
<rect width="32" height="32" fill="white"/>
</clipPath>
</defs>
</svg>
