<svg width="16" height="20" viewBox="0 0 16 20" fill="none" xmlns="http://www.w3.org/2000/svg">
<path d="M15.6835 5.50104C15.935 4.78054 15.9801 4.0041 15.8137 3.25933C15.6473 2.51457 15.2761 1.83113 14.7419 1.28613C14.2185 0.730753 13.5502 0.332769 12.8125 0.137107C12.0749 -0.0585547 11.2972 -0.0441016 10.5673 0.178835L8.59256 0.760695C8.17711 0.883352 7.73506 0.883352 7.31961 0.760695L5.34487 0.178853C4.61501 -0.0443468 3.83726 -0.0589334 3.09954 0.136742C2.36182 0.332418 1.69354 0.730554 1.17024 1.28615C0.636083 1.83114 0.264872 2.51458 0.0984938 3.25934C-0.067884 4.0041 -0.0228055 4.78054 0.228643 5.50104L1.58214 9.50389C1.74285 9.98531 1.73855 10.5065 1.56994 10.9852C1.16064 12.2278 1.00542 13.5399 1.11351 14.8436C1.22159 16.1473 1.59078 17.416 2.1991 18.5742L2.62749 19.3849C2.7113 19.543 2.83121 19.6791 2.97748 19.7822C3.12376 19.8852 3.29227 19.9524 3.46935 19.9781C3.48581 19.9828 3.50264 19.986 3.51966 19.9878L3.54041 19.9872L3.54544 19.9858C3.58981 19.9932 3.6346 19.9977 3.67954 19.9994C3.89498 19.9942 4.1046 19.9284 4.28433 19.8095C4.46406 19.6906 4.60661 19.5235 4.6956 19.3272L6.83327 14.6638C6.93183 14.4488 7.09003 14.2666 7.28907 14.139C7.48811 14.0113 7.71962 13.9434 7.9561 13.9434C8.19258 13.9434 8.42409 14.0113 8.62313 14.139C8.82217 14.2666 8.98037 14.4488 9.07894 14.6638L11.2166 19.3272C11.2949 19.4962 11.4136 19.6435 11.5621 19.7559C11.7107 19.8683 11.8846 19.9424 12.0686 19.9718C12.0794 19.9754 12.0903 19.9784 12.1014 19.9808C12.1054 19.981 12.1088 19.9791 12.1127 19.9792C12.1523 19.9881 12.1923 19.9948 12.2327 19.9994L12.2656 20C12.4755 20.0006 12.6816 19.9436 12.8613 19.8351C13.041 19.7267 13.1875 19.5709 13.2847 19.3849L13.6856 18.626C14.3024 17.4521 14.6768 16.1661 14.7866 14.8445C14.8965 13.523 14.7396 12.1928 14.3252 10.9331C14.1724 10.4686 14.1741 9.96708 14.3301 9.50362L15.6835 5.50104ZM11.8373 19.1504C11.817 19.1242 11.7992 19.0961 11.7841 19.0666L9.64644 14.4032C9.4981 14.0795 9.25995 13.8053 8.96031 13.613C8.66066 13.4207 8.31211 13.3185 7.95608 13.3185C7.60005 13.3185 7.2515 13.4207 6.95185 13.613C6.65221 13.8053 6.41406 14.0795 6.26572 14.4032L4.12805 19.0666C4.09835 19.1332 4.05493 19.1928 4.00063 19.2414C3.94632 19.2901 3.88235 19.3267 3.8129 19.349C3.79531 19.0267 3.78117 18.6357 3.7857 18.1876C3.81311 17.0124 3.9179 15.8404 4.09939 14.679C4.34504 12.6402 4.77831 10.6285 5.39369 8.66937C6.196 8.31298 7.06383 8.12787 7.94174 8.12587C8.81964 8.12387 9.6883 8.30504 10.4922 8.65778C10.6375 9.40471 11.2587 12.631 11.5418 14.679C11.7871 16.1561 11.886 17.6539 11.8373 19.1504ZM5.21855 5.7906C5.2884 5.68735 5.37822 5.59914 5.48272 5.53117C5.58721 5.4632 5.70426 5.41685 5.82696 5.39486L7.00533 5.18065C7.63378 5.06613 8.27774 5.06603 8.90623 5.18034L10.0852 5.39484C10.2078 5.41701 10.3247 5.4634 10.4291 5.53128C10.5335 5.59917 10.6234 5.68719 10.6934 5.7902C10.7634 5.89322 10.8121 6.00916 10.8368 6.13124C10.8615 6.25332 10.8615 6.37909 10.837 6.5012L10.5352 8.01067C9.67065 7.66216 8.74534 7.48934 7.81328 7.5023C6.97704 7.52187 6.15134 7.69333 5.37644 8.0083L5.07514 6.5012C5.05027 6.37919 5.05016 6.25342 5.07479 6.13136C5.09943 6.0093 5.14831 5.89342 5.21855 5.7906ZM13.732 11.1299C14.1201 12.3096 14.2671 13.5553 14.1641 14.793C14.0612 16.0306 13.7104 17.235 13.1327 18.3343L12.7318 19.0932C12.6705 19.2029 12.5716 19.2868 12.4534 19.3295C12.5198 17.745 12.4217 16.1578 12.1606 14.5936C11.8596 12.4173 11.1831 8.93351 11.0865 8.44059L11.4497 6.62387C11.4537 6.60393 11.4525 6.58398 11.4557 6.56399L12.78 7.0068C12.8118 7.01755 12.8452 7.02301 12.8788 7.02297C12.9415 7.02293 13.0028 7.00402 13.0546 6.96871C13.1064 6.93339 13.1464 6.8833 13.1693 6.82495L13.4995 5.98618C13.5146 5.948 13.5221 5.90722 13.5214 5.86615C13.5208 5.82509 13.5121 5.78455 13.4958 5.74687C13.4794 5.70918 13.4558 5.67509 13.4263 5.64654C13.3968 5.61799 13.3619 5.59554 13.3237 5.58049C13.2855 5.56544 13.2447 5.55808 13.2036 5.55882C13.1626 5.55957 13.1221 5.56841 13.0844 5.58483C13.0468 5.60126 13.0127 5.62495 12.9843 5.65456C12.9558 5.68416 12.9335 5.71908 12.9185 5.75734L12.697 6.32028L11.4548 5.90509L11.9519 4.48896L12.7428 4.19207C12.82 4.16271 12.8826 4.10392 12.9166 4.02857C12.9506 3.95323 12.9534 3.86746 12.9244 3.79006C12.8953 3.71266 12.8368 3.64992 12.7616 3.61559C12.6863 3.58125 12.6006 3.57811 12.5231 3.60686L11.5955 3.955C11.5527 3.97109 11.514 3.99637 11.4821 4.02905C11.4501 4.06174 11.4257 4.10103 11.4106 4.14417L11.1011 5.02635L10.7199 3.9608L11.0476 2.88739C11.0711 2.80828 11.0624 2.72307 11.0234 2.65035C10.9843 2.57762 10.9181 2.52329 10.8392 2.4992C10.7602 2.47511 10.675 2.48322 10.602 2.52176C10.529 2.5603 10.4742 2.62615 10.4496 2.70493L10.0919 3.8775C10.0725 3.94183 10.0742 4.01071 10.0968 4.07399L10.3668 4.82863C10.3113 4.80937 10.2548 4.79325 10.1975 4.78034L9.01791 4.56554C8.31558 4.4378 7.59596 4.4379 6.89367 4.56585L5.71469 4.78034C5.42431 4.83055 5.15459 4.96351 4.93791 5.16324C4.72123 5.36298 4.56679 5.621 4.49315 5.90635L3.91387 5.19377L3.86688 4.07217C3.86733 4.03046 3.85899 3.98911 3.84241 3.95083C3.82582 3.91255 3.80137 3.87819 3.77063 3.84999C3.73989 3.82178 3.70356 3.80036 3.664 3.78712C3.62444 3.77389 3.58253 3.76912 3.54101 3.77315C3.45825 3.77668 3.38026 3.81292 3.3242 3.8739C3.26813 3.93489 3.23856 4.01564 3.24199 4.09841L3.29386 5.32346C3.29678 5.39076 3.3214 5.4553 3.36403 5.50745L4.36719 6.74165L3.39699 7.20787L3.21634 6.53722C3.20572 6.49763 3.18741 6.46053 3.16245 6.42801C3.13749 6.3955 3.10637 6.36823 3.07087 6.34774C3.03537 6.32726 2.99618 6.31397 2.95555 6.30863C2.91491 6.30329 2.87362 6.306 2.83403 6.31662C2.79444 6.32724 2.75733 6.34555 2.72482 6.37051C2.69231 6.39547 2.66503 6.42659 2.64455 6.46209C2.62406 6.49759 2.61077 6.53678 2.60543 6.57742C2.60009 6.61806 2.60281 6.65935 2.61343 6.69894L2.89111 7.7333C2.90297 7.77766 2.92447 7.81885 2.95408 7.85395C2.98369 7.88905 3.02067 7.91719 3.06239 7.93636C3.10412 7.95554 3.14956 7.96527 3.19547 7.96487C3.24139 7.96448 3.28665 7.95396 3.32804 7.93407L4.60206 7.32215L4.82149 8.41945C4.18141 10.4308 3.73246 12.498 3.4806 14.5936C3.2955 15.7812 3.18868 16.9798 3.16083 18.1815C3.15755 18.5156 3.16442 18.8156 3.1751 19.0832L2.75198 18.2825C2.18067 17.1915 1.8353 15.9965 1.73653 14.769C1.63776 13.5415 1.78763 12.3067 2.17716 11.1384C2.37725 10.5429 2.37618 9.89823 2.17411 9.30343L0.82057 5.30088C0.606811 4.68862 0.56845 4.0288 0.709815 3.3959C0.85118 2.763 1.16664 2.18221 1.6206 1.71909C2.06541 1.2472 2.63326 0.909035 3.26007 0.742763C3.88688 0.576491 4.54769 0.588732 5.16791 0.778104L7.14264 1.35996C7.31223 1.40795 7.48587 1.44024 7.66138 1.45642C7.27081 1.86535 6.9987 2.37272 6.87413 2.92431C6.85622 3.00519 6.87116 3.08988 6.91568 3.15974C6.96019 3.2296 7.03064 3.27893 7.11151 3.29686C7.13378 3.30164 7.15648 3.3041 7.17925 3.30418C7.25039 3.30411 7.31938 3.27981 7.37484 3.23527C7.43031 3.19073 7.46894 3.12861 7.48437 3.05917C7.56986 2.68023 7.74192 2.32623 7.98708 2.0249C8.23223 1.72356 8.54383 1.48308 8.89745 1.32228L10.7443 0.778104C11.3645 0.588775 12.0253 0.576556 12.6521 0.742826C13.2789 0.909096 13.8467 1.24724 14.2916 1.71909C14.7455 2.18221 15.061 2.763 15.2023 3.3959C15.3437 4.0288 15.3054 4.68862 15.0916 5.30088L13.7381 9.30312C13.539 9.89543 13.5369 10.5362 13.732 11.1299H13.732Z" fill="url(#paint0_linear_0_2162)"/>
<defs>
<linearGradient id="paint0_linear_0_2162" x1="0" y1="0" x2="20.723" y2="10.5519" gradientUnits="userSpaceOnUse">
<stop stop-color="#AD37E0"/>
<stop offset="1" stop-color="#EE2B3B"/>
</linearGradient>
</defs>
</svg>
