<svg width="24" height="24" viewBox="0 0 24 24" fill="none" xmlns="http://www.w3.org/2000/svg">
<path d="M16.865 9.67008L13.97 9.25008L12.675 6.62508C12.55 6.37008 12.29 6.20508 12 6.20508C11.71 6.20508 11.455 6.36508 11.325 6.62508L10.03 9.25008L7.13499 9.67008C6.85499 9.71008 6.61999 9.91008 6.52999 10.1801C6.43999 10.4501 6.51499 10.7501 6.71999 10.9501L8.81499 12.9901L8.31999 15.8751C8.29664 16.0131 8.31233 16.1549 8.36529 16.2845C8.41826 16.4141 8.50639 16.5263 8.61975 16.6085C8.7331 16.6906 8.86716 16.7394 9.00679 16.7495C9.14643 16.7595 9.28608 16.7302 9.40999 16.6651L12 15.3001L14.59 16.6601C14.7 16.7201 14.82 16.7451 14.94 16.7451C15.095 16.7451 15.25 16.6951 15.38 16.6001C15.61 16.4301 15.725 16.1501 15.68 15.8651L15.185 12.9801L17.28 10.9401C17.485 10.7401 17.56 10.4451 17.47 10.1701C17.38 9.90508 17.145 9.71008 16.865 9.67008V9.67008ZM13.855 12.1901C13.68 12.3601 13.595 12.6101 13.64 12.8551L13.945 14.6301L12.35 13.7901C12.24 13.7351 12.12 13.7051 12 13.7051C11.88 13.7051 11.76 13.7351 11.65 13.7901L10.055 14.6301L10.36 12.8551C10.4 12.6101 10.32 12.3651 10.145 12.1901L8.85499 10.9351L10.635 10.6751C10.88 10.6401 11.09 10.4851 11.2 10.2651L12 8.65008L12.795 10.2651C12.905 10.4851 13.115 10.6401 13.36 10.6751L15.14 10.9351L13.855 12.1901V12.1901Z" fill="white"/>
<path d="M12 1.25C6.075 1.25 1.25 6.075 1.25 12C1.25 17.93 6.075 22.75 12 22.75C17.925 22.75 22.75 17.93 22.75 12C22.75 6.075 17.925 1.25 12 1.25ZM12 21.25C6.9 21.25 2.75 17.1 2.75 12C2.75 6.9 6.9 2.75 12 2.75C17.1 2.75 21.25 6.9 21.25 12C21.25 17.1 17.1 21.25 12 21.25Z" fill="white"/>
</svg>
