<svg width="16" height="16" viewBox="0 0 16 16" fill="none" xmlns="http://www.w3.org/2000/svg">
<g clip-path="url(#clip0_14_4526)">
<path d="M11.2433 6.44666L9.31335 6.16666L8.45002 4.41666C8.36668 4.24666 8.19335 4.13666 8.00002 4.13666C7.80668 4.13666 7.63668 4.24332 7.55002 4.41666L6.68668 6.16666L4.75668 6.44666C4.57002 6.47332 4.41335 6.60666 4.35335 6.78666C4.29335 6.96666 4.34335 7.16666 4.48002 7.29999L5.87668 8.65999L5.54668 10.5833C5.53111 10.6753 5.54157 10.7699 5.57688 10.8563C5.61219 10.9427 5.67095 11.0175 5.74652 11.0722C5.82209 11.127 5.91146 11.1596 6.00455 11.1662C6.09764 11.1729 6.19074 11.1534 6.27335 11.11L8.00002 10.2L9.72668 11.1067C9.80002 11.1467 9.88002 11.1633 9.96002 11.1633C10.0633 11.1633 10.1667 11.13 10.2533 11.0667C10.4067 10.9533 10.4833 10.7667 10.4533 10.5767L10.1233 8.65332L11.52 7.29332C11.6567 7.15999 11.7067 6.96332 11.6467 6.77999C11.5867 6.60332 11.43 6.47332 11.2433 6.44666ZM9.23668 8.12666C9.12002 8.23999 9.06335 8.40666 9.09335 8.56999L9.29668 9.75332L8.23335 9.19332C8.16002 9.15666 8.08002 9.13666 8.00002 9.13666C7.92002 9.13666 7.84002 9.15666 7.76668 9.19332L6.70335 9.75332L6.90668 8.56999C6.93335 8.40666 6.88002 8.24332 6.76335 8.12666L5.90335 7.28999L7.09002 7.11666C7.25335 7.09332 7.39335 6.98999 7.46668 6.84332L8.00002 5.76666L8.53002 6.84332C8.60335 6.98999 8.74335 7.09332 8.90668 7.11666L10.0933 7.28999L9.23668 8.12666Z" fill="white"/>
<path d="M7.99998 0.833344C4.04998 0.833344 0.833313 4.05001 0.833313 8.00001C0.833313 11.9533 4.04998 15.1667 7.99998 15.1667C11.95 15.1667 15.1666 11.9533 15.1666 8.00001C15.1666 4.05001 11.95 0.833344 7.99998 0.833344ZM7.99998 14.1667C4.59998 14.1667 1.83331 11.4 1.83331 8.00001C1.83331 4.60001 4.59998 1.83334 7.99998 1.83334C11.4 1.83334 14.1666 4.60001 14.1666 8.00001C14.1666 11.4 11.4 14.1667 7.99998 14.1667Z" fill="white"/>
</g>
<defs>
<clipPath id="clip0_14_4526">
<rect width="16" height="16" fill="white"/>
</clipPath>
</defs>
</svg>
