<svg width="30" height="24" viewBox="0 0 30 24" fill="none" xmlns="http://www.w3.org/2000/svg">
<g filter="url(#filter0_d_0_2240)">
<path fill-rule="evenodd" clip-rule="evenodd" d="M4.75 4C4.75 3.17157 5.42157 2.5 6.25 2.5H16.25C17.0784 2.5 17.75 3.17157 17.75 4V6.50015V11.5001V14C17.75 14.8284 17.0784 15.5 16.25 15.5H6.25C5.42157 15.5 4.75 14.8284 4.75 14V4ZM19.75 13.118V14C19.75 15.933 18.183 17.5 16.25 17.5H6.25C4.317 17.5 2.75 15.933 2.75 14V4C2.75 2.067 4.317 0.5 6.25 0.5H16.25C18.183 0.5 19.75 2.067 19.75 4V4.88227L23.9941 2.76068L23.9942 2.76061C24.3372 2.58924 24.7182 2.50834 25.1012 2.52559C25.4842 2.54284 25.8565 2.65767 26.1826 2.85918C26.5088 3.06068 26.778 3.34218 26.9648 3.67698C27.1516 4.01177 27.2498 4.38874 27.25 4.77211V4.77265V13.2276V13.2282C27.2498 13.6116 27.1516 13.9885 26.9648 14.3233C26.778 14.6581 26.5088 14.9396 26.1826 15.1411C25.8565 15.3426 25.4842 15.4575 25.1012 15.4747C24.7182 15.492 24.3372 15.4111 23.9942 15.2397L23.9941 15.2396L19.75 13.118ZM19.75 10.8821L24.8882 13.4506C24.9264 13.4697 24.9687 13.4786 25.0112 13.4767C25.0538 13.4748 25.0952 13.4621 25.1314 13.4397C25.1676 13.4173 25.1976 13.386 25.2183 13.3488C25.2391 13.3116 25.25 13.2697 25.25 13.2271V4.77318C25.25 4.73058 25.2391 4.6887 25.2183 4.6515C25.1976 4.6143 25.1676 4.58302 25.1314 4.56063C25.0952 4.53824 25.0538 4.52549 25.0112 4.52357C24.9687 4.52165 24.9265 4.53062 24.8884 4.54961L24.8882 4.54968L19.75 7.11824V10.8821Z" fill="white"/>
</g>
<defs>
<filter id="filter0_d_0_2240" x="-1.25" y="0.5" width="32.5" height="25" filterUnits="userSpaceOnUse" color-interpolation-filters="sRGB">
<feFlood flood-opacity="0" result="BackgroundImageFix"/>
<feColorMatrix in="SourceAlpha" type="matrix" values="0 0 0 0 0 0 0 0 0 0 0 0 0 0 0 0 0 0 127 0" result="hardAlpha"/>
<feOffset dy="4"/>
<feGaussianBlur stdDeviation="2"/>
<feComposite in2="hardAlpha" operator="out"/>
<feColorMatrix type="matrix" values="0 0 0 0 0 0 0 0 0 0 0 0 0 0 0 0 0 0 0.25 0"/>
<feBlend mode="normal" in2="BackgroundImageFix" result="effect1_dropShadow_0_2240"/>
<feBlend mode="normal" in="SourceGraphic" in2="effect1_dropShadow_0_2240" result="shape"/>
</filter>
</defs>
</svg>
